<svg width="71" height="70" viewBox="0 0 71 70" fill="none" xmlns="http://www.w3.org/2000/svg">
<path d="M6.8373 0H63.538C65.6776 0.0464844 67.7537 1.171 68.9637 2.93535C69.7122 4.00039 70.1299 5.2835 70.188 6.58232V63.538C70.1005 64.7103 69.7478 65.8684 69.1031 66.8562C68.3751 67.9902 67.306 68.9015 66.0687 69.4367C65.3304 69.7655 64.5319 69.9303 63.7294 70H6.77236C5.67314 69.948 4.58281 69.6473 3.6292 69.0949C2.43564 68.412 1.45605 67.3613 0.862012 66.1213C0.466894 65.3167 0.261133 64.4321 0.187988 63.5421V6.58232C0.255664 4.82754 1.01992 3.11104 2.29619 1.90244C3.5041 0.732812 5.15703 0.047168 6.8373 0ZM31.3011 5.12695C22.6536 20.1113 14.0041 35.095 5.35596 50.0787C5.29307 50.2147 5.32725 50.3713 5.31973 50.5169C5.32178 54.3908 5.31904 58.2647 5.32109 62.1394C5.31836 62.5399 5.40723 62.9412 5.57949 63.3035C6.01289 64.24 7.0123 64.8833 8.04658 64.8676C16.0446 64.8689 24.042 64.8683 32.0394 64.8683C30.4596 62.1421 28.8887 59.4111 27.3123 56.6836C24.7126 52.1685 22.0931 47.6643 19.5057 43.143C20.8229 40.8892 22.119 38.6224 23.4274 36.3638C29.05 26.628 34.6726 16.8916 40.2944 7.15586C40.6759 6.47705 41.0901 5.81465 41.4504 5.12559C38.0673 5.129 34.6842 5.12627 31.3011 5.12695ZM44.1479 5.12627C40.1133 12.1044 36.0951 19.0928 32.0537 26.0668C32.3976 26.7073 32.7776 27.3287 33.1365 27.9617C35.8531 32.6758 38.5868 37.3803 41.2938 42.0998C43.9291 42.1278 46.5664 42.1039 49.2023 42.1114C54.4886 42.1114 59.7741 42.1121 65.0604 42.1114C65.0645 30.6729 65.061 19.2343 65.0624 7.7957C65.0556 6.65 64.2387 5.57334 63.1415 5.24658C62.6596 5.08184 62.1462 5.13379 61.6465 5.12695C55.8141 5.12627 49.981 5.12764 44.1479 5.12627ZM30.6947 28.4245C28.9898 31.3947 27.2713 34.3567 25.563 37.3249C25.0537 38.2026 25.0038 39.3251 25.4317 40.2452C25.8111 41.0888 26.5781 41.743 27.4695 41.9891C27.9774 42.1436 28.5127 42.1087 29.0363 42.1114C32.2287 42.1101 35.4211 42.1148 38.6142 42.1087C36.2981 38.0878 33.9746 34.071 31.6559 30.0508C31.3305 29.5121 31.0468 28.9454 30.6947 28.4245ZM22.9448 44.4425C26.8591 51.2565 30.8075 58.0508 34.7238 64.8635C43.6946 64.8744 52.6661 64.8648 61.6376 64.8683C62.1188 64.8594 62.6131 64.9079 63.0807 64.7637C63.97 64.5162 64.7015 63.7827 64.9517 62.8954C65.1034 62.406 65.0453 61.8892 65.0562 61.3854C65.0562 55.7382 65.061 50.0903 65.0583 44.4425C51.0207 44.4432 36.9824 44.4452 22.9448 44.4425Z" fill="#162B30"/>
</svg>
