<svg width="73" height="70" viewBox="0 0 73 70" fill="none" xmlns="http://www.w3.org/2000/svg">
<path fill-rule="evenodd" clip-rule="evenodd" d="M13.0045 0H60.1178C62.6122 0.0704102 65.082 0.880469 67.1151 2.33037C69.6389 4.10566 71.4764 6.82979 72.1593 9.84102C72.3355 10.5625 72.409 11.3015 72.4823 12.0391L72.4826 12.042C72.4947 12.1645 72.5069 12.2869 72.5195 12.4093V57.5326C72.4259 58.7241 72.2837 59.9211 71.9153 61.0634C71.1995 63.3849 69.7947 65.4856 67.9299 67.0421C65.7581 68.8735 62.9574 69.9228 60.1198 70H12.9498C10.7589 69.9105 8.58711 69.2754 6.7209 68.116C4.68926 66.8678 3.02061 65.0351 1.97129 62.8934C1.16807 61.2705 0.738086 59.4734 0.673828 57.6666V12.3361C0.730566 10.7871 1.04844 9.24561 1.64932 7.81553C2.63164 5.44756 4.35498 3.39746 6.51309 2.01455C8.44014 0.765625 10.7124 0.0779297 13.0045 0ZM19.7037 18.3148C19.6969 18.9807 19.6559 19.6513 19.513 20.3027L19.4697 20.4396C19.3401 20.85 19.2105 21.2604 19.0659 21.6658C17.9609 24.8321 16.8561 27.9984 15.7513 31.1647L15.7494 31.1701C13.706 37.0264 11.6626 42.8828 9.61797 48.7389L9.61785 48.7393C9.57002 48.8985 9.51278 49.089 9.60908 49.242C9.69153 49.3527 9.83228 49.3556 9.96122 49.3583H9.96126C9.98839 49.3589 10.015 49.3594 10.0404 49.361C10.9636 49.3596 11.8869 49.3598 12.8102 49.3599C13.7329 49.3601 14.6557 49.3603 15.5782 49.3589C15.7908 49.3712 16.0014 49.24 16.0766 49.0403C16.5642 47.5467 17.0451 46.0506 17.526 44.5545L17.5262 44.5538C17.8125 43.6632 18.0987 42.7726 18.3864 41.8824C19.9527 41.8812 21.5187 41.8814 23.0848 41.8817H23.0969C24.1446 41.8819 25.1924 41.882 26.2402 41.8817C26.6626 41.8778 27.0852 41.8799 27.5077 41.8819C28.1978 41.8852 28.8879 41.8885 29.5769 41.866C30.0338 43.2555 30.5094 44.6393 30.985 46.0232L30.9853 46.0242C31.3073 46.9611 31.6293 47.898 31.9455 48.8366C31.9968 49.0438 32.1622 49.2468 32.394 49.2379C33.4786 49.2397 34.5633 49.2394 35.648 49.2391H35.654C36.642 49.2389 37.63 49.2387 38.6181 49.24L38.6566 49.2389C38.7935 49.2357 38.967 49.2317 39.0193 49.0827C39.0617 48.9018 38.9957 48.7273 38.9314 48.5574C38.9116 48.5051 38.892 48.4533 38.8758 48.4019C36.2383 41.037 33.6022 33.6713 30.9663 26.306L30.9626 26.2958L28.0853 18.2561C28.0463 18.0729 27.8494 18.0038 27.6826 18.0093C25.1273 18.0072 22.5721 18.0079 20.0175 18.0086C19.8473 17.9901 19.6853 18.1433 19.7037 18.3148ZM48.3162 25.6471C47.2936 25.9267 46.3475 26.4359 45.4807 27.0382C43.6719 28.3049 42.2958 30.1397 41.4591 32.1733C40.3865 34.8332 40.1206 37.798 40.6285 40.6157C40.8815 41.9836 41.2978 43.3344 41.9902 44.5471C43.0608 46.4618 44.7397 48.0457 46.7535 48.9303C48.5897 49.7561 50.6268 50.0158 52.6249 50.0172C54.0502 50.0439 55.4782 49.9201 56.8782 49.6501C57.8079 49.4895 58.7178 49.2215 59.5907 48.8633L59.6095 48.8556C59.7687 48.7901 59.9434 48.7182 60.0289 48.5584C60.0969 48.3859 60.0977 48.1981 60.0985 48.0147C60.0987 47.9822 60.0988 47.9499 60.0993 47.9179C60.0966 46.5951 60.0973 45.2731 60.0986 43.951C60.0974 43.9026 60.0982 43.8535 60.099 43.8043C60.1019 43.6317 60.1048 43.457 60.0207 43.3023C59.13 43.6878 58.1791 43.925 57.22 44.0624C56.4038 44.221 55.5767 44.3222 54.7461 44.3652C53.6524 44.4466 52.5436 44.3646 51.4847 44.0706C50.5495 43.8054 49.6007 43.4554 48.8754 42.7841C47.8459 41.8749 47.3216 40.5228 47.1439 39.1877C48.6118 39.1885 50.0798 39.1884 51.5478 39.1883H51.5665C52.6722 39.1882 53.7778 39.1881 54.8835 39.1884C55.1179 39.1896 55.3525 39.1886 55.5871 39.1876H55.5872H55.5872C56.3769 39.1842 57.1673 39.1808 57.9535 39.2636C58.8635 39.3574 59.7736 39.2855 60.6824 39.2137C60.9854 39.1898 61.2882 39.1658 61.5909 39.1481C61.809 39.1248 61.9532 38.9061 61.9601 38.6982C62.1077 37.2449 62.2041 35.7752 62.064 34.3171C61.904 32.8405 61.4802 31.3838 60.7706 30.0768C60.2641 29.1649 59.6646 28.2892 58.8784 27.5946C57.1961 26.0832 54.9293 25.3306 52.6933 25.2267C51.2263 25.1911 49.7367 25.2499 48.3162 25.6471ZM23.7514 23.8213L23.7514 23.8212C23.7783 23.683 23.8052 23.5447 23.873 23.4199C24.0624 24.0351 24.2354 24.6553 24.4083 25.2756L24.4083 25.2756C24.5911 25.9311 24.774 26.5866 24.9763 27.2364C25.1652 27.8409 25.3565 28.4446 25.5478 29.0483L25.5478 29.0484C25.8875 30.1202 26.2271 31.192 26.5533 32.2677C26.7201 32.8251 26.9043 33.3768 27.0885 33.9285C27.3099 34.5914 27.5313 35.2543 27.7223 35.927L25.5525 35.9272H25.5407C23.7363 35.9275 21.9318 35.9277 20.1275 35.9263C20.6054 34.5604 21.0688 33.1878 21.4284 31.7851C21.8436 30.4561 22.255 29.1262 22.6665 27.796L22.6668 27.7951L22.8284 27.2727C23.1798 26.183 23.4765 25.0756 23.7232 23.9579C23.7336 23.9127 23.7425 23.867 23.7514 23.8213ZM51.3938 30.3905C50.2269 30.4247 49.0873 30.977 48.3354 31.8698C47.6429 32.6983 47.2778 33.7593 47.1418 34.8195C47.9816 34.8191 48.8216 34.8195 49.6615 34.8199C51.2644 34.8207 52.8675 34.8215 54.4706 34.8161C54.5304 34.8144 54.591 34.8134 54.652 34.8124C55.0693 34.8057 55.5085 34.7986 55.8556 34.5434C55.8645 33.9801 55.7988 33.4093 55.576 32.8877C55.1159 31.714 54.0639 30.7932 52.8368 30.5026C52.3658 30.3796 51.8764 30.3851 51.3938 30.3905Z" fill="#162B30"/>
</svg>
