<svg width="71" height="70" viewBox="0 0 71 70" fill="none" xmlns="http://www.w3.org/2000/svg">
<path d="M6.68768 0.0166179C24.9751 -0.0123594 43.264 0.0124783 61.5514 0.00419906C62.7036 0.0235173 63.8779 -0.0854928 65.0053 0.21256C66.8488 0.655499 68.4632 1.9236 69.3588 3.59049C69.9273 4.62677 70.1908 5.81346 70.1853 6.99188C70.1867 25.2034 70.1853 43.4164 70.1853 61.6293C70.1743 62.558 70.2377 63.4977 70.0625 64.4167C69.7189 66.3444 68.4881 68.0858 66.7936 69.0641C65.7173 69.7016 64.4616 70.0121 63.2128 69.9996C44.4934 69.9983 25.7727 69.9996 7.05334 69.9983C5.25261 70.0065 3.46429 69.2752 2.19895 67.9919C0.923947 66.7293 0.191233 64.9479 0.199512 63.1555C0.196753 44.4775 0.200893 25.7995 0.198133 7.12297C0.170536 6.00113 0.387177 4.87101 0.882551 3.86232C1.92712 1.64763 4.24116 0.115969 6.68768 0.0166179ZM30.1179 7.23335C32.2912 10.9149 34.3969 14.635 36.5481 18.3289C39.2748 23.0702 42.0262 27.7948 44.7473 32.5388C47.1635 28.4572 49.4982 24.3272 51.8868 20.2276C54.7804 15.1911 57.7126 10.1752 60.5938 5.13043C50.834 5.11249 41.0755 5.12491 31.3157 5.12767C30.9155 5.83002 30.4919 6.5172 30.1179 7.23335ZM41.9434 42.1055C49.6486 42.1138 57.3552 42.1193 65.0618 42.1055C65.0618 30.7243 65.0618 19.3445 65.0618 7.96469C65.1225 6.76972 64.3126 5.6603 63.2059 5.256C56.1285 17.5465 49.0194 29.8164 41.9434 42.1055ZM26.6586 13.1944C24.3335 17.2278 21.9905 21.2529 19.6847 25.2973C25.7437 25.3 31.8041 25.3152 37.8645 25.3C37.7693 25.1165 37.6755 24.9344 37.5761 24.755C34.648 19.6909 31.7282 14.6212 28.796 9.55844C28.0288 10.7369 27.3761 11.9856 26.6586 13.1944ZM32.3506 27.6182C31.4495 27.7203 30.6878 28.3509 30.2918 29.1471C29.4501 30.6043 28.6152 32.0669 27.768 33.5213C27.2754 34.341 27.2685 35.4214 27.7694 36.2383C28.6622 37.7796 29.5453 39.3264 30.4463 40.8622C30.91 41.6488 31.8152 42.1303 32.7245 42.1124C34.4217 42.1069 36.119 42.1234 37.8162 42.1055C38.7545 42.0889 39.6266 41.5149 40.0599 40.6911C40.932 39.1747 41.8137 37.6637 42.6858 36.1472C43.1356 35.3717 43.1232 34.363 42.6761 33.5889C41.8068 32.078 40.9306 30.5698 40.0585 29.0602C39.7646 28.5289 39.3258 28.0653 38.7628 27.8183C38.1226 27.5051 37.3912 27.6072 36.7041 27.592C35.2524 27.6086 33.7994 27.5575 32.3506 27.6182ZM7.913 45.6656C7.06714 47.171 6.15505 48.642 5.34506 50.164C5.29814 54.1228 5.3423 58.0844 5.32712 62.0433C5.28848 63.1651 6.00602 64.3518 7.11682 64.6568C8.23037 62.6353 9.41982 60.6565 10.561 58.6502C16.5317 48.3136 22.5121 37.9838 28.469 27.6389C25.0897 27.6279 21.709 27.6458 18.3283 27.6293C14.8496 33.6372 11.3834 39.6535 7.913 45.6656ZM9.66682 64.8665C20.3153 64.8651 30.9638 64.8693 41.6136 64.8651C36.2791 55.6572 30.9707 46.4342 25.6458 37.2208C20.3056 46.4287 14.9807 55.6448 9.66682 64.8665ZM32.5286 44.4485C36.4281 51.2706 40.3869 58.0596 44.3085 64.8693C50.2848 64.8748 56.261 64.872 62.2372 64.8707C63.1466 64.8845 64.0518 64.4457 64.5678 63.6895C64.9418 63.1776 65.0646 62.5318 65.0591 61.9094C65.0549 56.0878 65.0563 50.2661 65.0632 44.4444C54.2188 44.4458 43.373 44.4403 32.5286 44.4485Z" fill="#162B30"/>
</svg>
