<svg width="87" height="70" viewBox="0 0 87 70" fill="none" xmlns="http://www.w3.org/2000/svg">
<path fill-rule="evenodd" clip-rule="evenodd" d="M49.4816 1.26234C47.6648 -0.269863 44.9202 -0.347382 42.8514 0.706383C41.8957 1.2042 41.0418 2.00118 40.6966 3.04526C40.3817 3.96942 40.6046 5.02319 41.2041 5.78383C41.5152 6.21042 41.9323 6.5291 42.3489 6.84737C42.5261 6.98274 42.7032 7.11803 42.872 7.26153C44.2366 8.34547 45.5914 9.44144 46.9463 10.5374C48.6905 11.9483 50.4347 13.3593 52.1996 14.7445C46.3458 14.7489 40.492 14.7436 34.6382 14.7383C29.3899 14.7336 24.1416 14.7289 18.8934 14.7311C17.1189 14.7699 15.2537 15.2338 13.9177 16.4632C12.7355 17.5388 12.079 19.1933 12.2692 20.7873C12.463 22.2819 13.3932 23.6615 14.7025 24.4076C15.4874 24.88 16.4067 25.0932 17.3176 25.1065C22.7475 25.1125 28.1774 25.098 33.6073 25.0823C32.9937 25.6016 32.3424 26.0741 31.6912 26.5466C31.305 26.8268 30.9188 27.107 30.5405 27.3969C26.5322 30.3604 22.5247 33.3251 18.5171 36.2899C13.5438 39.969 8.57045 43.6482 3.59563 47.3252C2.31778 48.3026 1.28824 49.641 0.808599 51.1878C0.39436 52.4826 0.395571 53.9518 1.00724 55.1848C1.56077 56.3234 2.59758 57.2088 3.80274 57.5915C5.59778 58.1887 7.60114 57.8531 9.24962 56.9823C10.0206 56.5867 10.6894 56.0333 11.3545 55.483C11.449 55.4048 11.5435 55.3266 11.6382 55.249C13.9339 53.3715 16.2287 51.4934 18.5234 49.6154C20.9141 47.659 23.3045 45.7026 25.6956 43.7472C25.8115 43.6556 25.9245 43.5599 26.0375 43.4642C26.2919 43.2489 26.5461 43.0337 26.833 42.8642C26.6646 44.1966 26.6246 45.5532 26.8729 46.8795C27.7862 52.8799 31.1231 58.3534 35.6434 62.3383C39.5532 65.7927 44.3896 68.1522 49.4804 69.2592C54.9685 70.4378 60.7642 70.2161 66.1287 68.5507C70.6235 67.1626 74.8192 64.7632 78.2203 61.505C81.5355 58.334 84.096 54.3479 85.4405 49.9511C86.9072 45.2709 86.9254 40.1644 85.5579 35.4576C84.2171 30.7992 81.5112 26.5721 77.9551 23.2921C76.8824 22.2874 75.7136 21.3976 74.5455 20.5084C74.0913 20.1626 73.6372 19.8169 73.1889 19.4646C68.8098 16.1048 64.4322 12.7427 60.0546 9.38074C56.5305 6.67419 53.0064 3.96766 49.4816 1.26234ZM40.5295 32.5374C43.3892 27.5919 48.8179 24.4355 54.4355 23.8153C59.4028 23.2279 64.6171 24.5057 68.6226 27.5362C72.0443 30.0919 74.5322 33.9872 75.0312 38.2652C75.5884 42.4851 74.1506 46.8577 71.3648 50.048C68.1672 53.7895 63.3877 56.0206 58.5101 56.4069C53.5526 56.8284 48.4012 55.3968 44.5229 52.2415C41.5699 49.8809 39.4006 46.4906 38.7223 42.7516C38.0719 39.2754 38.7417 35.5848 40.5295 32.5374ZM62.9747 31.2558C60.9604 29.9368 58.5125 29.3227 56.1143 29.4669C53.7718 29.6001 51.4596 30.4637 49.6536 31.9717C48.205 33.1732 47.081 34.7878 46.5565 36.6034C46.0357 38.3572 46.0696 40.2746 46.6704 42.0042C47.3971 44.1699 48.9717 46.0025 50.9182 47.1737C54.5361 49.406 59.4306 49.3285 62.9771 46.9872C64.7576 45.822 66.1965 44.1021 66.899 42.0842C67.6149 40.0687 67.5676 37.7952 66.767 35.8125C66.0246 33.9423 64.6522 32.3532 62.9747 31.2558Z" fill="#162B30"/>
</svg>
