<svg width="89" height="70" viewBox="0 0 89 70" fill="none" xmlns="http://www.w3.org/2000/svg">
<path fill-rule="evenodd" clip-rule="evenodd" d="M18.8895 0H70.7335C72.8794 0.0507843 74.9767 0.986176 76.468 2.52686C78.126 4.20755 79.0861 6.55804 79.0573 8.92088C78.9235 13.0722 79.0456 17.2564 79.8211 21.3466C80.2692 23.6332 80.9164 25.9089 82.0282 27.9684C82.6575 29.1207 83.4549 30.1975 84.4727 31.0361C85.6702 32.0367 87.1848 32.6358 88.7372 32.7648V37.2304C87.3475 37.358 85.9832 37.8371 84.8556 38.6668C83.2051 39.8671 82.0975 41.6596 81.3172 43.5146C80.309 45.9365 79.7655 48.5251 79.4292 51.1192C79.0614 54.0325 78.964 56.9752 79.0257 59.9097C79.0286 60.0823 79.034 60.2551 79.0395 60.428L79.0396 60.4284C79.0552 60.9205 79.0709 61.4132 79.0257 61.9047C78.8205 64.4034 77.5207 66.7937 75.5195 68.3077C74.1511 69.3556 72.4505 69.9506 70.7287 70H18.9005C16.8197 69.9465 14.7849 69.068 13.3046 67.6083C11.5299 65.8851 10.5101 63.409 10.5822 60.9343C10.7016 57.3135 10.6028 53.6742 10.062 50.0877C9.67355 47.587 9.07649 45.0924 7.99493 42.7933C7.19473 41.1051 6.07061 39.5081 4.49012 38.4684C3.42159 37.7588 2.16845 37.3464 0.894043 37.2331V32.7696C2.08542 32.655 3.261 32.2961 4.28149 31.6633C5.90796 30.6696 7.07875 29.0816 7.90571 27.3906C9.01542 25.1046 9.62895 22.6127 10.0304 20.114C10.6035 16.437 10.7043 12.7009 10.5794 8.98608C10.5259 6.34255 11.7193 3.71069 13.7322 1.9998C15.1583 0.772059 17.0078 0.0514706 18.8895 0ZM31.3283 16.2908C31.3288 21.2787 31.3287 26.2666 31.3286 31.2544C31.3284 38.7338 31.3283 46.2131 31.3303 53.6927C34.6032 53.695 37.8759 53.6946 41.1486 53.6943H41.1486C42.9671 53.6941 44.7855 53.6939 46.604 53.6941C48.8338 53.6989 51.0909 53.4265 53.1868 52.6345C55.0171 51.9489 56.7142 50.8186 57.8946 49.2443C59.366 47.3131 59.9349 44.8124 59.7881 42.4166C59.6707 40.2726 58.7744 38.1637 57.231 36.658C55.6087 35.0377 53.3741 34.149 51.1197 33.8896L51.1403 33.8512C52.0503 33.6673 52.9404 33.3605 53.7406 32.8835C55.8612 31.6476 57.3991 29.4528 57.8164 27.031C58.0532 25.596 57.9276 24.104 57.4849 22.7198C56.8865 20.8353 55.5723 19.2136 53.9039 18.165C51.7031 16.7643 49.0424 16.2688 46.4647 16.2894C44.6307 16.2897 42.7967 16.2895 40.9627 16.2894C37.7512 16.2892 34.5397 16.289 31.3283 16.2908ZM37.4224 21.1908C38.6667 21.1865 39.9112 21.187 41.1559 21.1875C41.9164 21.1878 42.677 21.1881 43.4376 21.1873C43.7028 21.1893 43.9689 21.1879 44.2354 21.1865H44.2354C45.4709 21.18 46.7147 21.1734 47.9148 21.5003C49.0959 21.8029 50.2454 22.422 50.9612 23.4349C51.7717 24.5618 51.9549 26.0256 51.7765 27.3734C51.6351 28.4337 51.1513 29.4542 50.3717 30.1933C49.3704 31.1541 48.0198 31.6517 46.6768 31.9015C45.4459 32.1412 44.1929 32.1361 42.9434 32.1311H42.9434H42.9431C42.6511 32.1299 42.3591 32.1287 42.0678 32.1307C41.4779 32.1291 40.888 32.1299 40.2979 32.1308C39.3393 32.1321 38.3805 32.1334 37.4217 32.1245C37.4244 28.4797 37.4244 24.8356 37.4224 21.1908ZM41.027 36.7162C39.8256 36.7159 38.6243 36.7155 37.4231 36.7177V48.7955C38.5856 48.7975 39.7479 48.7974 40.9102 48.7972C41.6856 48.7971 42.461 48.797 43.2365 48.7975C43.6325 48.7924 44.0294 48.7949 44.4264 48.7974C45.6333 48.8049 46.8421 48.8124 48.0349 48.6074C49.3498 48.3919 50.6709 47.9575 51.7141 47.1024C52.539 46.434 53.1202 45.4869 53.3769 44.4596C53.6363 43.4151 53.6528 42.3102 53.4366 41.2561C53.2163 40.1937 52.6508 39.2 51.8122 38.5062C50.7347 37.5989 49.3491 37.1576 47.98 36.9284C46.663 36.704 45.3272 36.7097 43.995 36.7155C43.673 36.7168 43.3512 36.7182 43.0299 36.7164C42.3622 36.7166 41.6946 36.7164 41.027 36.7162Z" fill="#162B30"/>
</svg>
