<svg width="61" height="70" viewBox="0 0 61 70" fill="none" xmlns="http://www.w3.org/2000/svg">
<path fill-rule="evenodd" clip-rule="evenodd" d="M30.5339 0H30.5228C24.8822 3.2767 19.2293 6.53271 13.5765 9.78868L13.5761 9.78891L13.5749 9.78957L13.5747 9.78968C9.11302 12.3596 4.65134 14.9295 0.195801 17.5095V52.5C2.41016 53.7763 4.62468 55.0523 6.83919 56.3283L6.88194 56.3529L6.93623 56.3842L6.94184 56.3874C14.8091 60.9205 22.6764 65.4536 30.537 70H30.5402L31.4303 69.4874C41.2553 63.8297 51.0813 58.1713 60.894 52.4921V17.4953C57.0098 15.2585 53.1275 13.0183 49.2451 10.7781C43.0107 7.18061 36.7761 3.58312 30.5339 0ZM4.32731 29.9516C4.32661 26.5904 4.32591 23.2292 4.32643 19.868C6.91324 18.3745 9.49978 16.8806 12.0863 15.3867C18.2426 11.831 24.3989 8.27525 30.5591 4.725C34.4809 6.99535 38.4058 9.26029 42.3308 11.5253L42.3314 11.5256L42.3321 11.526L42.3327 11.5264L42.3334 11.5267L42.334 11.5271L42.3346 11.5275C47.1466 14.3043 51.9587 17.0811 56.7649 19.868L56.7641 22.6179C56.7611 31.7879 56.7581 40.957 56.7681 50.1273C52.2719 52.739 47.7678 55.3373 43.2638 57.9356L43.2625 57.9363L43.2613 57.937L43.26 57.9377L43.2588 57.9385L43.2575 57.9392L43.2563 57.9399C39.0243 60.3812 34.7923 62.8226 30.567 65.275C21.8122 60.2347 13.0622 55.1849 4.3217 50.1209C4.33011 43.3973 4.32871 36.6743 4.32731 29.9516ZM13.2656 24.0097C11.7127 24.2272 10.3931 25.2315 9.41404 26.4108C7.8548 28.3043 6.91516 30.6187 6.21201 32.9441C6.17381 33.0951 6.1284 33.245 6.08296 33.395C5.97087 33.7651 5.85861 34.1357 5.85413 34.5239C5.85758 36.4579 5.8568 38.3917 5.85602 40.3255C5.85503 42.8117 5.85403 45.2978 5.86201 47.7844C8.35458 43.3432 10.9276 38.9067 14.1879 34.9763C15.3262 33.6426 16.5291 32.3387 17.9701 31.325C18.8498 30.7007 19.8462 30.1946 20.9309 30.0606C20.0512 28.2176 18.9066 26.4313 17.2591 25.1842C16.1318 24.3281 14.6908 23.7905 13.2656 24.0097ZM42.6183 26.8113C43.61 25.6368 44.9674 24.6719 46.5282 24.5016C48.0291 24.325 49.5001 24.9399 50.6967 25.8039C52.5035 27.1156 53.883 28.9113 55.1253 30.7433C55.1253 31.0365 55.1253 31.3298 55.1269 31.623C53.4935 30.4059 51.4519 29.6476 49.396 29.8494C46.8089 30.0859 44.5086 31.6088 42.8138 33.5086C41.7953 34.6138 40.9645 35.8782 40.2503 37.1978C40.0359 36.7986 39.8076 36.4067 39.5794 36.0149C39.1533 35.2832 38.7273 34.5517 38.3915 33.7735C38.8294 33.0389 39.2355 32.2826 39.6417 31.5261L39.6417 31.526C40.524 29.8829 41.4071 28.2384 42.6183 26.8113ZM29.6888 25.2236C28.7082 25.036 27.8316 25.6918 27.2341 26.3982C26.0753 27.7855 25.3674 29.4741 24.6926 31.1326C26.7327 32.7013 28.8942 34.352 31.4956 34.8045C33.1021 35.104 34.767 34.5585 35.9967 33.5101L35.8324 33.1935C34.7633 31.1325 33.6876 29.0589 32.2839 27.2022C31.6028 26.3572 30.8003 25.4538 29.6888 25.2236ZM18.7159 33.1806C19.5814 32.5358 20.5904 31.9603 21.705 31.9966C21.0463 33.7208 20.4369 35.467 19.8272 37.2136L19.8272 37.2137C18.3838 41.3491 16.9395 45.487 14.8391 49.3421C14.2746 50.3874 13.6629 51.409 13.0118 52.4022C11.896 51.7002 10.7782 51.0036 9.66059 50.3071C9.06639 49.9368 8.47224 49.5665 7.87847 49.1955C8.21585 48.2006 8.67779 47.2563 9.14446 46.3198C10.6627 43.359 12.4064 40.5117 14.3818 37.8346C15.6636 36.1461 17.021 34.4765 18.7159 33.1806ZM53.9381 33.2531C52.2323 31.8957 49.8043 31.8736 47.8588 32.6966C44.8933 33.931 42.5852 36.4725 41.2893 39.3765C42.0019 40.5038 42.9352 41.7272 44.3384 41.9527C45.7636 42.1245 47.039 41.177 47.9361 40.1664C48.385 39.5322 48.7391 38.8399 49.0934 38.1473C49.4957 37.361 49.8982 36.5743 50.4397 35.8718C51.3084 34.6704 52.5397 33.7466 53.9381 33.2531ZM23.9974 33.023C26.1904 34.7226 28.6325 36.307 31.4325 36.7106C33.3591 37.007 35.3834 36.4773 36.9032 35.2539C37.6379 36.7248 38.4246 38.1721 39.3091 39.5579C38.36 41.4041 37.1571 43.1667 35.5316 44.4847C34.6283 45.1894 33.5373 45.7933 32.358 45.7381C31.4562 45.7081 30.6758 45.1753 30.0546 44.5651C29.0267 43.5545 28.2699 42.3106 27.5731 41.062C26.1825 38.4764 25.0505 35.7599 23.9974 33.023ZM23.1318 35.2192C20.9325 41.5397 18.5613 47.8696 14.9967 53.5689C17.0732 54.7762 19.1531 55.9779 21.2329 57.1797C24.3326 58.9706 27.4323 60.7616 30.5213 62.5712C30.824 62.423 31.1172 62.2559 31.4073 62.084C34.5028 60.2986 37.5993 58.5148 40.6959 56.731C45.5068 53.9596 50.3178 51.1882 55.1253 48.4104C55.1269 44.0322 55.1285 39.6541 55.1237 35.2759C54.1147 35.3942 53.1057 35.7252 52.3111 36.3764C51.4661 37.0385 50.9032 37.9876 50.5296 38.9809C49.9447 40.507 48.8836 41.8534 47.512 42.7489C46.4163 43.4852 45.0195 43.8509 43.7188 43.5198C42.3156 43.1809 41.2026 42.1561 40.3544 41.0336C39.0679 43.0185 37.6474 45.0034 35.6814 46.3703C34.4201 47.2595 32.7663 47.7372 31.2607 47.2248C29.487 46.6304 28.1832 45.1705 27.1379 43.6807C25.3722 41.0888 24.1724 38.1642 23.1318 35.2192Z" fill="#162B30"/>
</svg>
