<svg width="63" height="70" viewBox="0 0 63 70" fill="none" xmlns="http://www.w3.org/2000/svg">
<path d="M0 0.0004051C20.6868 -0.000506375 41.3737 0.0004051 62.0605 0.0004051C60.1801 21.0008 58.3134 42.003 56.4322 63.0034C48.0511 65.3194 39.6738 67.6483 31.2937 69.9671C31.0904 70.0117 30.8771 70.0117 30.6757 69.9625C22.3257 67.6492 13.9775 65.3249 5.62562 63.0171C3.73978 42.013 1.88037 21.0053 0 0.0004051ZM10.8292 12.5469C11.1483 15.1437 11.4709 17.7404 11.7918 20.3372C14.7103 20.3409 17.6279 20.3381 20.5465 20.3391C24.3683 20.3509 28.1919 20.3126 32.0119 20.3646C31.61 20.5022 31.2198 20.6708 30.8416 20.8622C24.7274 23.4144 18.6087 25.9574 12.4945 28.5095C12.7014 31.0489 12.9019 33.5892 13.1088 36.1295C19.7517 36.1604 26.3954 36.1377 33.0373 36.206C35.5439 36.216 38.0514 36.2233 40.5588 36.2288C40.3419 39.6168 40.186 43.0111 39.939 46.3963C36.9494 47.2358 33.957 48.0625 30.9737 48.9211C28.0661 48.1992 25.1576 47.481 22.2491 46.7609C22.0714 44.6572 21.9009 42.5526 21.7214 40.4489C19.0398 40.4526 16.3582 40.4471 13.6758 40.4517C14.0076 44.5068 14.3594 48.5592 14.6793 52.6144C20.1436 54.2523 25.6216 55.8456 31.0913 57.4634C36.4854 55.8747 41.8887 54.3179 47.2855 52.7374C47.9782 44.6508 48.6946 36.5661 49.3883 28.4785C43.2386 28.4922 37.0879 28.4658 30.9382 28.4922C31.3383 28.3847 31.7066 28.1914 32.0885 28.0374C38.0924 25.4761 44.0899 22.9003 50.0965 20.3491C50.1339 19.2699 50.3061 18.1998 50.39 17.1243C50.5495 15.5894 50.6999 14.0544 50.8594 12.5195C43.5804 12.5377 36.2995 12.494 29.0214 12.5469C22.9573 12.5469 16.8933 12.5487 10.8292 12.5469Z" fill="#162B30"/>
</svg>
