<svg width="70" height="70" viewBox="0 0 70 70" fill="none" xmlns="http://www.w3.org/2000/svg">
<path d="M59.0285 59.2325C58.5077 58.497 57.5159 58.2186 56.6586 58.3945C55.3566 58.5732 54.5116 60.0788 55.0158 61.2866C55.5034 62.7063 57.4785 63.1121 58.6143 62.2285C59.5327 61.5594 59.7113 60.1286 59.0285 59.2325Z" fill="#162B30"/>
<path fill-rule="evenodd" clip-rule="evenodd" d="M5.71688 0C2.55953 0 0 2.55953 0 5.71688V64.2831C0 67.4405 2.55953 70 5.71688 70H64.2831C67.4405 70 70 67.4405 70 64.2831V5.71688C70 2.55953 67.4405 0 64.2831 0H5.71688ZM42.0513 57.7864C40.3988 56.3833 40.2437 53.559 41.7493 51.9952C42.5388 51.185 43.6774 50.7957 44.7924 50.757C45.7661 50.7265 46.7842 50.8719 47.6263 51.3913C48.305 51.8013 48.8314 52.4288 49.2081 53.1199C48.9377 53.2968 48.665 53.4702 48.3921 53.6437L48.392 53.6438L48.3919 53.6439C47.9018 53.9556 47.4115 54.2674 46.9338 54.5992C46.8991 54.5495 46.8648 54.4991 46.8303 54.4485C46.5985 54.1081 46.3605 53.7585 45.9891 53.5632C45.3783 53.2307 44.5306 53.2211 43.9973 53.7058C43.5693 54.1034 43.5292 54.7821 43.7979 55.2793C44.124 55.7699 44.6788 56.0187 45.2016 56.2533C45.2428 56.2717 45.2837 56.2901 45.3243 56.3085C45.496 56.384 45.6694 56.4583 45.8433 56.5329L45.8453 56.5338L45.8455 56.5338C46.9557 57.0098 48.0872 57.4949 48.9477 58.3626C49.697 59.0745 50.0793 60.123 50.0336 61.1494C50.0793 61.9888 49.909 62.8572 49.4131 63.5512C48.7164 64.572 47.5183 65.1385 46.3202 65.3061C44.604 65.5665 42.7258 65.2756 41.3269 64.198C40.7022 63.7118 40.1911 63.0858 39.8282 62.3835C40.1268 62.2123 40.4242 62.0389 40.7215 61.8655L40.7219 61.8653C41.2227 61.5733 41.7233 61.2814 42.2299 60.9998C42.6524 61.612 43.1344 62.2325 43.845 62.522C44.7342 62.896 45.8548 62.9043 46.6526 62.3115C47.0958 61.968 47.1928 61.353 47.039 60.8391C46.8216 60.3308 46.3257 60.0247 45.8478 59.7948C45.4687 59.606 45.0761 59.4384 44.6832 59.2707C43.7495 58.8721 42.8136 58.4726 42.0513 57.7864ZM29.0009 53.9918C29.0014 52.9731 29.0019 51.9544 29.0022 50.9356C30.213 50.9399 31.4239 50.938 32.635 50.9361H32.6354C34.5734 50.9331 36.5117 50.9301 38.45 50.9523C38.4444 51.793 38.4444 52.6338 38.45 53.4745C37.0543 53.4977 35.6581 53.4939 34.2621 53.4901H34.262C33.4898 53.488 32.7176 53.4859 31.9455 53.4884C31.9306 54.1999 31.9327 54.9114 31.9347 55.6229C31.9357 55.9654 31.9367 56.308 31.9358 56.6506C32.5711 56.6506 33.2064 56.6504 33.8417 56.6503H33.8537C35.1203 56.65 36.3869 56.6497 37.6536 56.6506C37.6541 57.0097 37.654 57.3686 37.6538 57.7275C37.6536 58.2059 37.6534 58.6843 37.6549 59.1632C36.5651 59.1663 35.4757 59.1659 34.3862 59.1654H34.38C33.5649 59.1651 32.7498 59.1647 31.9345 59.1659C31.9345 59.4523 31.9344 59.7387 31.9343 60.0251V60.0253C31.934 60.8848 31.9338 61.7447 31.9358 62.6038C32.8266 62.6054 33.7174 62.6047 34.6082 62.604H34.61C35.986 62.6028 37.3621 62.6017 38.7381 62.6093C38.7376 62.9324 38.7376 63.2553 38.7377 63.5781C38.7378 64.116 38.7379 64.6536 38.7353 65.1911C36.7538 65.1962 34.7718 65.1956 32.7897 65.195H32.7698C31.5149 65.1946 30.2599 65.1942 29.005 65.1953C28.9973 61.4606 28.9991 57.7267 29.0009 53.9924V53.9918ZM53.9858 55.0503L53.9863 55.0496C54.158 54.8237 54.3294 54.5979 54.4978 54.3707C55.0278 53.6721 55.5533 52.9704 56.0788 52.2688L56.0795 52.2679C56.43 51.8 56.7805 51.332 57.1323 50.865C58.383 50.8594 59.6338 50.8539 60.8845 50.8678C60.3361 51.6356 59.763 52.3855 59.1898 53.1355L59.1896 53.1357L59.1892 53.1362C58.7927 53.6551 58.3961 54.174 58.0077 54.699C57.5897 55.2819 57.0407 55.7475 56.4975 56.2082L56.4854 56.2184C58.4523 55.4857 60.969 56.0965 62.1381 57.9124C63.1229 59.4596 63.1104 61.5705 62.1394 63.1218C61.5743 64.0263 60.6754 64.6883 59.6906 65.0734C58.1296 65.6704 56.3497 65.6828 54.7845 65.0956C53.4354 64.6025 52.2484 63.5706 51.7456 62.2035C51.2456 60.8128 51.4506 59.2393 52.085 57.9249C52.5905 56.8872 53.2894 55.9671 53.9858 55.0503Z" fill="#162B30"/>
</svg>
