<svg width="50" height="70" viewBox="0 0 50 70" fill="none" xmlns="http://www.w3.org/2000/svg">
<path d="M12.7072 0H36.9085C40.0539 0.270667 43.1199 1.59833 45.3505 3.85467C47.5882 6.06667 48.9415 9.10467 49.1959 12.236V14.245C48.7805 18.172 46.6129 21.875 43.2972 24.045C46.6689 26.2967 48.9205 30.1093 49.1959 34.16V36.1667C48.8062 39.4543 47.2802 42.6207 44.7649 44.8023C41.9205 47.355 37.9305 48.5077 34.1575 47.9873C31.4882 47.698 28.9962 46.4613 26.9709 44.7277C26.9615 48.8017 26.9639 52.8733 26.9615 56.945C26.9709 61.0167 24.8615 64.9623 21.5995 67.3657C19.4435 68.971 16.7952 69.874 14.1142 70H13.1249C9.28653 69.8227 5.54153 67.9397 3.2012 64.8783C1.54453 62.7807 0.627533 60.1627 0.429199 57.5097V56.567C0.550533 52.3437 2.8162 48.2813 6.34187 45.9573C2.8512 43.61 0.566866 39.599 0.429199 35.3827V34.6337C0.564533 30.4127 2.84187 26.3807 6.35353 24.045C2.9212 21.7863 0.643866 17.8687 0.461866 13.7573C0.279866 10.3903 1.49553 6.98833 3.7262 4.46367C5.98253 1.86433 9.29353 0.301 12.7072 0ZM26.9662 4.32133C26.9709 10.1757 26.9685 16.03 26.9662 21.8843C30.1815 21.8913 33.3992 21.9053 36.6145 21.8727C40.5439 21.7397 44.0789 18.5757 44.7439 14.7117C45.3482 11.6363 44.1209 8.30433 41.6895 6.33267C40.0842 5.00267 37.9935 4.26767 35.9075 4.312C32.9279 4.319 29.9459 4.30033 26.9662 4.32133ZM9.96087 5.089C6.3372 6.64767 4.10653 10.85 4.9092 14.7257C5.5742 18.5733 9.09053 21.7187 13.0035 21.8727C16.2235 21.8983 19.4435 21.875 22.6635 21.8843C22.6822 16.0277 22.6635 10.1733 22.6729 4.31667C19.6092 4.30967 16.5455 4.31433 13.4819 4.31433C12.2709 4.312 11.0669 4.599 9.96087 5.089ZM6.17387 30.2307C4.8252 32.2933 4.39353 34.9417 5.07487 37.3147C6.01287 40.9453 9.50587 43.736 13.2649 43.7803C16.4055 43.771 19.5485 43.813 22.6892 43.7593C22.6635 37.919 22.6729 32.0763 22.6845 26.2337C19.6255 26.1917 16.5665 26.229 13.5075 26.215C10.5885 26.1823 7.73953 27.7807 6.17387 30.2307ZM34.8132 26.2547C31.0729 26.621 27.7969 29.6357 27.1365 33.3363C26.4202 36.7267 28.0045 40.4343 30.9025 42.315C32.8882 43.6777 35.4269 44.072 37.7695 43.6333C40.0912 43.19 42.1959 41.755 43.4769 39.7693C44.7485 37.8303 45.1942 35.371 44.6832 33.11C44.1349 30.5527 42.3639 28.301 40.0259 27.139C38.4299 26.3037 36.5889 26.089 34.8132 26.2547ZM9.86753 48.9137C6.3512 50.484 4.16253 54.5487 4.88353 58.3497C5.4552 61.957 8.4932 64.96 12.0865 65.5527C14.9402 66.073 18.0249 65.107 20.0525 63.028C21.7349 61.39 22.6869 59.0497 22.6799 56.707C22.6612 53.8417 22.7032 50.974 22.6565 48.111C19.6045 48.125 16.5502 48.111 13.4982 48.1157C12.2452 48.0853 10.9992 48.384 9.86753 48.9137Z" fill="#162B30"/>
</svg>
