<svg width="71" height="70" viewBox="0 0 71 70" fill="none" xmlns="http://www.w3.org/2000/svg">
<path d="M34.8313 0H35.9754C37.2438 0.164491 38.3094 0.937598 39.1465 1.8624C49.1018 11.8251 59.0681 21.7786 69.0217 31.7431C69.8112 32.5125 70.3083 33.5488 70.4326 34.6436V35.393C70.3358 36.4402 69.9062 37.4637 69.1624 38.2131C58.9895 48.3877 48.8167 58.5606 38.642 68.7334C37.8927 69.4755 36.871 69.9031 35.8274 70H35.0854C33.9467 69.8721 32.8519 69.3457 32.0971 68.4739C22.0102 58.4637 11.9854 48.3877 1.92766 38.3465C1.13993 37.6081 0.598936 36.6212 0.432617 35.552V34.3914C0.555072 33.4118 0.973609 32.4614 1.68092 31.7632C8.69006 24.7559 15.6974 17.7449 22.7083 10.7394C25.3621 13.3841 28.0049 16.0415 30.6606 18.6843C30.1232 20.0313 30.0848 21.5922 30.6971 22.9227C31.2399 24.1856 32.2945 25.1945 33.5556 25.73C33.5611 32.1452 33.5593 38.5621 33.5574 44.9773C31.3021 45.8911 29.8436 48.4389 30.3279 50.8441C30.719 53.3681 33.1444 55.3768 35.7031 55.2488C38.4465 55.2653 40.8901 52.8253 40.9193 50.0875C41.007 48.0313 39.7697 46.0465 37.9457 45.1253C37.9457 38.7595 37.9457 32.3937 37.9457 26.0279C40.3728 28.4478 42.7982 30.8731 45.218 33.3021C44.0812 35.8517 45.3788 39.1123 47.9394 40.2034C50.3318 41.3877 53.4608 40.3533 54.753 38.0394C56.1384 35.817 55.4859 32.6533 53.3786 31.1162C51.9804 30.0214 50.0431 29.7399 48.3707 30.3138C45.7791 27.7496 43.2185 25.1543 40.6287 22.5883C41.0856 21.1316 41.0034 19.4922 40.2175 18.1616C39.0331 15.9794 36.2094 14.8773 33.8663 15.7399C31.1339 13.0862 28.471 10.3611 25.7715 7.67624C27.9117 5.52689 30.0593 3.38851 32.2013 1.24282C32.8995 0.537337 33.8517 0.118799 34.8313 0Z" fill="#162B30"/>
</svg>
