<svg width="72" height="70" viewBox="0 0 72 70" fill="none" xmlns="http://www.w3.org/2000/svg">
<path d="M31.9281 0.209073C36.9759 -0.317992 42.147 0.140386 46.9817 1.71037C50.3529 2.79814 53.5448 4.42139 56.4492 6.44694C62.5245 10.648 67.191 16.8116 69.6959 23.7518C71.0571 27.5043 71.7019 31.4923 71.7706 35.4776V36.2948C71.6822 39.652 71.2631 43.0149 70.2763 46.2319C68.3741 52.6478 64.5248 58.4175 59.5584 62.8751C56.239 65.809 52.3533 68.1009 48.1788 69.584C47.5073 69.8658 46.7742 70.1209 46.0397 69.9387C45.2743 69.7648 44.8047 68.9644 44.8145 68.2145C44.7991 65.5511 44.8131 62.8864 44.8075 60.223C44.8033 58.4988 44.8874 56.7396 44.3996 55.0645C44.0646 53.7847 43.3693 52.6002 42.3853 51.7115C44.3898 51.4521 46.4056 51.1592 48.326 50.5115C51.3131 49.4406 54.2372 47.7388 56.0049 45.025C57.6365 42.4556 58.4299 39.4292 58.6738 36.4154C58.8336 34.4024 58.8449 32.3474 58.3486 30.3765C57.8131 28.1407 56.6553 26.0759 55.0937 24.3952C56.0315 22.0192 56.0736 19.3544 55.3909 16.9055C55.2157 16.2033 54.9591 15.5262 54.7194 14.8435C52.9855 14.4567 51.2767 15.2094 49.7123 15.8738C47.9938 16.5635 46.4098 17.5377 44.858 18.5372C39.0168 16.935 32.7537 16.9336 26.914 18.5372C25.4533 17.5798 23.9576 16.6616 22.3246 16.0266C20.6523 15.3328 18.8622 14.4735 17.0049 14.8407C16.0601 17.3331 15.5498 20.089 16.1722 22.7243C16.2914 23.2962 16.5016 23.8443 16.6768 24.4008C14.4354 26.7502 13.1444 29.935 13.0196 33.1717C12.9103 36.4434 13.3182 39.7824 14.6162 42.8102C15.2302 44.2849 16.0797 45.674 17.2067 46.8123C18.6407 48.2757 20.4504 49.3046 22.3232 50.0994C24.545 51.0512 26.9588 51.4003 29.339 51.7129C28.5961 52.4628 27.9625 53.3361 27.6106 54.3398C27.3163 55.0393 27.2055 55.792 27.0471 56.5307C25.9874 56.9989 24.8562 57.3073 23.6969 57.3942C22.7647 57.4531 21.8031 57.5302 20.8976 57.2442C19.5995 56.8503 18.4655 56.0107 17.6132 54.965C16.9123 54.1407 16.482 53.1202 15.7433 52.324C15.0186 51.483 14.0738 50.8718 13.0925 50.3728C12.1225 49.9298 10.9941 49.6859 9.94695 49.9901C9.65678 50.056 9.38204 50.3545 9.57969 50.6517C10.1138 51.8432 11.4903 52.1825 12.3075 53.1104C13.5018 54.3916 14.3527 55.9532 14.9835 57.5793C15.7531 59.6062 17.6959 61.0178 19.7705 61.4832C22.1339 61.95 24.5912 62.0215 26.9574 61.5252C26.97 63.7106 26.9869 65.896 27.0037 68.0799C27.0233 68.6546 26.82 69.2546 26.3631 69.6247C25.8809 70.041 25.187 70.0466 24.594 69.933C18.7234 68.0308 13.3561 64.5657 9.2713 59.9314C6.36123 56.6863 3.98102 52.9422 2.39983 48.8757C0.806017 44.8456 0.0700884 40.5127 0 36.1897V35.4818C0.0560708 33.6721 0.156998 31.8568 0.466789 30.0696C1.60503 22.5771 5.34915 15.5655 10.7207 10.2499C16.4175 4.68492 23.9787 0.988456 31.9281 0.209073Z" fill="#162B30"/>
</svg>
