<svg width="77" height="70" viewBox="0 0 77 70" fill="none" xmlns="http://www.w3.org/2000/svg">
<path d="M13.9837 0.748704C15.2676 -0.386715 17.5005 -0.219249 18.5354 1.17295C18.9105 1.64074 19.1003 2.2157 19.2711 2.78062C21.5922 9.94593 23.9334 17.1034 26.2567 24.2676C26.4085 24.684 26.4979 25.125 26.6977 25.5225C28.1803 25.5817 29.6674 25.5292 31.1523 25.5471C37.5171 25.5471 43.883 25.5471 50.2479 25.5482C50.3271 25.5415 50.4857 25.5281 50.5649 25.5225C50.6286 25.4187 50.6788 25.3104 50.7168 25.1954C53.0457 18.0368 55.3656 10.8748 57.6967 3.71732C58.0283 2.76053 58.2003 1.6854 58.9349 0.932917C60.1149 -0.326426 62.3489 -0.304097 63.5145 0.964178C64.1286 1.57822 64.3396 2.44458 64.5874 3.24618C68.4972 15.2345 72.3701 27.2351 76.2743 39.2257C76.8158 40.8657 76.3279 42.7893 75.0429 43.9516C74.4188 44.4874 73.721 44.9318 73.0645 45.4286C61.9414 53.506 50.8172 61.5824 39.6953 69.662C38.9897 70.1901 37.9425 70.0751 37.3072 69.4856C25.7554 61.09 14.2003 52.6989 2.64959 44.2999C1.07095 43.2013 0.379871 41.0432 0.99168 39.2246C4.9249 27.1469 8.84583 15.0648 12.7601 2.98158C12.9889 2.15877 13.2937 1.30022 13.9837 0.748704ZM16.0067 4.65178C14.2092 10.225 12.3928 15.7927 10.5942 21.3649C10.1487 22.7459 9.66976 24.1191 9.27677 25.5158C9.64408 25.5694 10.0159 25.5471 10.3865 25.5471C12.8047 25.5459 15.224 25.5482 17.6423 25.5471C19.3828 25.5258 21.1255 25.5906 22.8627 25.5158C20.6611 18.6921 18.4293 11.8774 16.2154 5.05816C16.1563 4.91972 16.1362 4.74556 16.0067 4.65178ZM61.0796 4.97443C58.9751 11.433 56.8862 17.8961 54.7817 24.3547C54.6701 24.7399 54.4736 25.1116 54.4647 25.5203C55.0653 25.5805 55.6693 25.5337 56.2722 25.5471C59.8079 25.5471 63.3426 25.5471 66.8783 25.5471C67.249 25.5448 67.6241 25.5738 67.9925 25.5102C67.949 25.1183 67.7827 24.7566 67.6677 24.3837C65.5263 17.809 63.3906 11.2332 61.2615 4.65513C61.1387 4.70983 61.132 4.86836 61.0796 4.97443ZM10.5886 29.1755C10.6143 29.2425 10.6656 29.3776 10.6924 29.4445C18.1167 38.9555 25.5332 48.4731 32.9564 57.9852C33.1686 58.2565 33.3595 58.549 33.6241 58.7745C33.3874 57.7586 33.0134 56.7783 32.7008 55.7825C29.8327 46.9626 26.9645 38.1416 24.1031 29.3195C24.0651 29.1085 23.8251 29.1666 23.6755 29.1532C19.3136 29.1732 14.9494 29.1275 10.5886 29.1755ZM27.9023 29.1833C27.9414 29.5216 28.0709 29.8386 28.1781 30.1602C31.6234 40.7798 35.0788 51.396 38.5264 62.0144C38.5442 62.1183 38.6034 62.1852 38.7039 62.2176C39.0745 60.965 39.4943 59.7268 39.9007 58.4865C42.7164 49.805 45.5432 41.1281 48.36 32.4466C48.6938 31.3581 49.1258 30.2919 49.3715 29.1799C47.9145 29.123 46.4542 29.171 44.9961 29.1565C41.0886 29.1554 37.1811 29.1565 33.2735 29.1565C31.4828 29.1744 29.6898 29.1185 27.9023 29.1833ZM53.1662 29.3206C49.9688 39.1743 46.7679 49.0291 43.5582 58.8783C44.0259 58.4574 44.3453 57.9026 44.7539 57.427C51.4882 48.7924 58.2271 40.1601 64.9625 31.5267C65.5509 30.7374 66.2085 29.9949 66.7555 29.1788C62.407 29.123 58.0529 29.1766 53.7021 29.152C53.5224 29.1799 53.2221 29.0717 53.1662 29.3206ZM7.27165 31.5546C6.33831 34.4797 5.36812 37.3936 4.43031 40.3175C4.31532 40.7005 4.44259 41.1638 4.78757 41.3882C12.2409 46.8096 19.6987 52.2244 27.1543 57.6424C27.8164 58.0968 28.4271 58.6294 29.1282 59.0224C28.7932 58.4775 28.3511 58.0098 27.9771 57.4928C21.1356 48.7388 14.3186 39.9636 7.46703 31.2174C7.31296 31.2286 7.33752 31.4497 7.27165 31.5546ZM69.6895 31.3369C63.3336 39.4936 56.9655 47.6425 50.6074 55.797C49.7901 56.8822 48.8981 57.9115 48.1289 59.0291C48.5665 58.8114 48.9215 58.4675 49.3279 58.2007C57.0447 52.5973 64.7627 46.995 72.4784 41.3882C72.8825 41.127 72.9596 40.5699 72.7865 40.149C71.8074 37.1792 70.8618 34.1983 69.8738 31.2331C69.8269 31.2588 69.7353 31.3112 69.6895 31.3369Z" fill="#162B30"/>
</svg>
