<svg width="72" height="70" viewBox="0 0 72 70" fill="none" xmlns="http://www.w3.org/2000/svg">
<path fill-rule="evenodd" clip-rule="evenodd" d="M59.6185 0H12.378C10.1974 0.0724609 8.03242 0.693164 6.16758 1.83066C4.03818 3.11514 2.30117 5.03809 1.24297 7.28848C0.49375 8.86758 0.0931641 10.6039 0.0336914 12.3491V57.5955C0.0849609 59.4775 0.543652 61.3491 1.39883 63.0287C2.44473 65.1 4.07168 66.8719 6.04385 68.0935C7.93945 69.2781 10.1529 69.9276 12.3842 70H59.4694C62.3091 69.9255 65.1125 68.8769 67.2857 67.0448C69.1273 65.5095 70.5211 63.443 71.2457 61.157C71.6313 59.9963 71.7789 58.7775 71.8794 57.5648V12.4291C71.8722 12.3549 71.8651 12.2806 71.858 12.2063C71.7787 11.3769 71.6991 10.5451 71.4945 9.73574C70.7829 6.71699 68.9078 3.99834 66.3526 2.24424C64.3818 0.871582 62.0138 0.105273 59.6185 0ZM48.1416 16.7323C48.7808 16.033 49.6975 15.6099 50.6395 15.5388C51.5883 15.4725 52.6 15.6639 53.3554 16.2736C54.2413 16.9887 54.7116 18.1501 54.672 19.278C54.6952 20.3253 54.2741 21.3794 53.5092 22.0992C52.816 22.7568 51.844 23.0856 50.8944 23.0371C49.9183 23.059 48.9448 22.6714 48.2462 21.9919C47.5455 21.2523 47.1853 20.2214 47.2181 19.2083C47.1969 18.3053 47.525 17.3954 48.1416 16.7323ZM24.8222 19.628C24.8946 19.127 24.9268 18.6204 24.9274 18.1139C24.9042 17.932 25.0799 17.7741 25.2569 17.798C27.789 17.7987 30.321 17.7987 32.8537 17.798C33.0164 17.7946 33.242 17.8145 33.294 18.0038C34.8572 22.4128 36.4198 26.822 37.9825 31.231C40.0328 37.0159 42.083 42.8007 44.1344 48.5851C44.1463 48.6221 44.16 48.6597 44.1738 48.6978C44.2323 48.8583 44.2936 49.0266 44.2356 49.1935C44.1795 49.3117 44.0332 49.3254 43.9184 49.3275C42.8701 49.3285 41.8216 49.3283 40.7732 49.3281C39.7247 49.328 38.6762 49.3278 37.6279 49.3288C37.4167 49.3391 37.239 49.1702 37.187 48.9747C36.3729 46.6108 35.558 44.2463 34.7432 41.8824C31.959 41.8814 29.1752 41.8815 26.3912 41.8817C25.4649 41.8817 24.5386 41.8817 23.6122 41.8817C22.8753 44.1554 22.1398 46.429 21.4056 48.7033C21.3406 48.9754 21.206 49.3131 20.8778 49.3261C19.8405 49.3291 18.803 49.3286 17.7654 49.3281C16.9111 49.3277 16.0568 49.3273 15.2026 49.3288L15.1949 49.3287C15.0629 49.3267 14.8997 49.3243 14.8232 49.1976C14.7419 49.0417 14.7966 48.8599 14.8444 48.7033C18.0402 39.5083 21.2354 30.3126 24.4291 21.1162C24.4708 20.9657 24.5182 20.8164 24.5656 20.6671C24.6739 20.3262 24.7822 19.985 24.8222 19.628ZM47.5496 25.9711C47.5503 25.8351 47.5715 25.669 47.7048 25.5965C47.781 25.5518 47.8701 25.5503 47.9574 25.5489C47.9782 25.5485 47.9989 25.5482 48.0192 25.5473C48.8594 25.549 49.6998 25.5485 50.5401 25.548C51.6606 25.5474 52.7812 25.5467 53.9016 25.5514C54.1306 25.535 54.2734 25.7653 54.2502 25.9732C54.2522 30.4763 54.2519 34.9795 54.2515 39.4827C54.2513 42.6365 54.251 45.7902 54.2516 48.944C54.2513 48.9538 54.251 48.9637 54.2507 48.9737C54.2467 49.1169 54.2421 49.2769 54.136 49.3856C54.0487 49.4741 53.9199 49.4764 53.8029 49.4784C53.7898 49.4786 53.7769 49.4789 53.7642 49.4792C52.8517 49.4779 51.939 49.4782 51.0263 49.4784C50.0225 49.4787 49.0188 49.479 48.0151 49.4772C47.8613 49.4819 47.6891 49.4286 47.6139 49.2837C47.5448 49.1564 47.5468 49.0118 47.5487 48.8699C47.5493 48.8251 47.5499 48.7805 47.5483 48.7368C47.5497 44.7196 47.5494 40.7025 47.5491 36.6853C47.5489 33.1139 47.5487 29.5425 47.5496 25.9711ZM29.0918 23.33C29.0813 23.3302 29.0701 23.3307 29.0632 23.3311C28.8103 24.4733 28.5361 25.6129 28.1861 26.7306C27.9643 27.4377 27.7455 28.1458 27.5266 28.854C27.2423 29.7738 26.958 30.6937 26.6672 31.6114C26.2769 33.0244 25.8373 34.4237 25.3479 35.8053C26.9597 35.807 28.5715 35.8068 30.1835 35.8066C31.1045 35.8065 32.0255 35.8064 32.9467 35.8067C32.7549 35.1317 32.5326 34.4664 32.3103 33.801C32.1228 33.2399 31.9353 32.6788 31.7661 32.1118C31.4292 31.0017 31.0788 29.8962 30.7284 28.7904C30.5683 28.2851 30.4081 27.7798 30.2492 27.274C30.0175 26.5349 29.809 25.7889 29.6006 25.0431C29.4406 24.4709 29.2807 23.8987 29.1104 23.3297C29.1056 23.3297 29.0989 23.3298 29.0918 23.33Z" fill="#162B30"/>
</svg>
