<svg width="71" height="70" viewBox="0 0 71 70" fill="none" xmlns="http://www.w3.org/2000/svg">
<path d="M35.3937 0H36.7222C42.9755 0.196 49.1635 2.05333 54.4462 5.41022C61.3466 9.68178 66.6635 16.4609 69.0653 24.2231C70.1449 27.496 70.6022 30.9338 70.7422 34.3653V35.3827C70.6022 42.8836 68.1444 50.3596 63.5369 56.3049C61.1195 59.4596 58.136 62.1693 54.8009 64.3253C45.256 49.8804 35.6706 35.4604 26.1195 21.0187C25.2111 19.6187 23.0146 19.2764 21.7204 20.3156C21.2444 20.6391 21.2413 21.2613 21.232 21.7747C21.2351 31.8422 21.2257 41.9098 21.2351 51.9742C21.0422 54.6809 25.9111 54.8613 26.1226 52.2573C26.1382 44.5729 26.1413 36.8916 26.1195 29.2071C34.4915 41.5924 42.9133 53.9467 51.3195 66.3071C46.7991 68.5907 41.7902 69.8009 36.7377 70H35.3813C27.5257 69.8351 19.7511 67.0413 13.6564 62.0729C7.33463 57.0173 2.86397 49.6751 1.3893 41.7076C0.969299 39.6978 0.866632 37.6444 0.742188 35.6036V34.3342C0.872854 32.4209 0.97241 30.4982 1.34574 28.6098C2.76441 20.6111 7.19463 13.2129 13.5009 8.10133C19.6235 3.04578 27.4604 0.177333 35.3937 0ZM45.4084 20.5364C45.396 27.2907 45.3866 34.0511 45.4115 40.8053C46.9951 43.3378 48.7 45.7987 50.2866 48.3311C50.4049 47.7867 50.3644 47.2267 50.3675 46.676C50.3551 37.9742 50.3769 29.2693 50.3551 20.5676C50.3333 19.2764 48.7529 18.9373 47.7231 19.0027C46.7835 18.9996 45.4146 19.3884 45.4084 20.5364Z" fill="#162B30"/>
</svg>
