<svg width="67" height="70" viewBox="0 0 67 70" fill="none" xmlns="http://www.w3.org/2000/svg">
<path fill-rule="evenodd" clip-rule="evenodd" d="M22.4895 5.60236C24.7188 4.5023 26.9394 3.39011 29.1596 2.27814L29.1602 2.27786L29.1606 2.27765L29.1607 2.27758C30.6794 1.51697 32.1979 0.756457 33.7188 0C36.1764 1.19071 38.6176 2.41631 41.0597 3.64231C42.3972 4.31381 43.735 4.98542 45.0758 5.6515C43.2019 6.69773 41.3051 7.70227 39.4086 8.70663L39.4084 8.70676L39.4083 8.70682L39.4081 8.70689C37.6792 9.62254 35.9505 10.538 34.2397 11.4848C32.0048 10.359 29.7668 9.24115 27.5282 8.12309L27.5281 8.123L27.5279 8.12292L27.5277 8.12283L27.5275 8.12274L27.5274 8.12266L27.5272 8.12257L27.527 8.12249C25.8477 7.28373 24.1681 6.44485 22.4895 5.60236ZM5.56449 13.9962C8.40036 12.602 11.2254 11.1861 14.0497 9.77069L14.0512 9.76993C15.0391 9.27484 16.0268 8.77981 17.0149 8.28577C20.2053 9.83312 23.3569 11.4517 26.5091 13.0705L26.5101 13.071L26.5111 13.0716L26.5122 13.0721C27.2433 13.4476 27.9745 13.8231 28.7062 14.1977C24.5388 16.4289 20.3714 18.6501 16.1402 20.7437C14.3977 19.8643 12.6586 18.9773 10.9196 18.0904L10.9193 18.0903L10.919 18.0901L10.9187 18.0899L10.9184 18.0898L10.9181 18.0896L10.9178 18.0895L10.9175 18.0893L10.9168 18.0889L10.9158 18.0885C8.97274 17.0974 7.02987 16.1065 5.08289 15.1266C4.14916 14.7875 5.08288 14.1535 5.56449 13.9962ZM44.4342 11.6004C42.8259 12.442 41.2176 13.2837 39.621 14.1486C42.6327 15.7407 45.6746 17.2752 48.7159 18.8095L48.7177 18.8104C49.7501 19.3313 50.7824 19.8521 51.8135 20.3751C53.3614 19.6102 54.9043 18.8362 56.4469 18.0623L56.4476 18.062L56.4481 18.0618L56.4482 18.0617L56.4483 18.0616L56.4484 18.0616L56.4486 18.0615L56.4487 18.0615C58.6523 16.956 60.8555 15.8508 63.0723 14.7727C60.3517 13.3208 57.589 11.953 54.827 10.5854L54.8268 10.5853C53.363 9.86051 51.8995 9.13584 50.4424 8.39879C48.4548 9.49633 46.4445 10.5484 44.4342 11.6004ZM21.7278 23.4416L22.7664 22.8899C26.5387 20.8859 30.3141 18.8803 34.1267 16.9448C35.4124 17.5884 36.6991 18.2311 37.9861 18.8739L37.9863 18.874L37.9866 18.8742L37.9869 18.8743L37.9972 18.8795L37.9975 18.8796C40.7943 20.2765 43.5922 21.6739 46.3831 23.0828C45.2282 23.6643 44.0725 24.2439 42.9169 24.8236L42.9168 24.8236L42.9166 24.8237L42.9165 24.8238L42.9163 24.8239L42.9161 24.824L42.9159 24.8241L42.9152 24.8244C39.8327 26.3705 36.7508 27.9164 33.6844 29.4961C32.2458 28.7626 30.7976 28.0477 29.3495 27.3328C26.7906 26.0697 24.2321 24.8067 21.7278 23.4416ZM61.3357 21.2669C59.1566 22.3664 56.9781 23.4657 54.7669 24.498C54.6569 27.9863 54.6758 31.4791 54.6948 34.9703V34.9705V34.9712V34.9719V34.9726V34.9733C54.7037 36.6258 54.7127 38.2779 54.708 39.9291C56.3455 39.1082 57.9727 38.2659 59.6003 37.4233L59.6009 37.423L59.6014 37.4227L59.6019 37.4225L59.6024 37.4222C61.8623 36.2523 64.1232 35.0819 66.414 33.9679C66.4297 30.7058 66.4273 27.4436 66.4248 24.1815V24.1774C66.4234 22.3644 66.422 20.5514 66.4238 18.7384C64.717 19.5606 63.0262 20.4138 61.3357 21.2669ZM42.8039 30.4759L42.804 30.4758L42.804 30.4758L42.8041 30.4757L42.8042 30.4757C45.1553 29.2898 47.5061 28.1041 49.9018 27.0094C49.9828 29.7855 49.9733 32.5645 49.9638 35.3441V35.3442V35.3444V35.3446V35.3449C49.956 37.6234 49.9482 39.9022 49.9902 42.18C47.5372 43.4581 45.0542 44.6764 42.5713 45.8946C40.4431 46.9389 38.3149 47.9831 36.2055 49.065C36.2022 45.657 36.2033 42.2469 36.2044 38.8375V38.8291V38.8286V38.828V38.8275C36.2049 37.1222 36.2055 35.4171 36.2055 33.7126C38.4293 32.6823 40.6166 31.5791 42.8038 30.4759L42.8038 30.4759L42.8039 30.4759ZM61.861 41.6864L61.8607 41.6866C59.4535 42.9005 57.0466 44.1143 54.6785 45.4038C54.6994 48.132 54.6967 50.8616 54.694 53.5911V53.5911V53.5911C54.6917 55.9996 54.6893 58.4079 54.7031 60.8152C56.6566 59.8544 58.6015 58.8801 60.5464 57.9058C62.4912 56.9316 64.436 55.9573 66.3894 54.9966C66.45 50.7174 66.4343 46.4383 66.4186 42.1591C66.4151 41.229 66.4117 40.299 66.4091 39.3689C64.8994 40.1542 63.3802 40.9203 61.861 41.6864ZM42.2786 51.4946L42.2814 51.4932C44.8343 50.2138 47.3864 48.9348 49.946 47.6741C49.9755 52.8489 49.9657 58.0188 49.951 63.1936C47.2448 64.4705 44.574 65.8164 41.9031 67.1623L41.9027 67.1625C40.0095 68.1165 38.1163 69.0705 36.2104 70C36.2012 66.7796 36.2016 63.5573 36.202 60.3354V60.3316V60.3316C36.2022 58.3973 36.2024 56.4631 36.2006 54.5297C38.23 53.5236 40.2546 52.509 42.2786 51.4946ZM4.8155 20.2007C3.54385 19.532 2.27233 18.8634 0.949834 18.3013C0.938425 23.791 0.940788 29.2807 0.943151 34.7703C0.945878 41.1046 0.948605 47.4388 0.930176 53.7731C2.2877 54.4809 3.63684 55.2079 4.98647 55.9352C6.37288 56.6822 7.75979 57.4296 9.1568 58.1567C9.18254 54.921 9.17862 51.6854 9.1747 48.449C9.17113 45.5067 9.16757 42.5638 9.18629 39.6198C11.1013 43.34 13.0343 47.0492 14.967 50.7576C16.6698 54.0249 18.3722 57.2916 20.0617 60.5647C20.146 60.7243 20.2299 60.8858 20.3143 61.0482C21.1164 62.5921 21.9631 64.2219 23.546 65.0712C24.9194 65.9223 26.301 66.7596 27.6829 67.597C28.902 68.3358 30.1214 69.0748 31.3353 69.8234C31.3582 61.8066 31.3549 53.7898 31.3517 45.773C31.35 41.7644 31.3484 37.7558 31.35 33.7471C28.2884 32.204 25.2218 30.6658 22.1454 29.1473C22.1296 32.2274 22.1325 35.3076 22.1355 38.3878C22.1389 41.9813 22.1424 45.5748 22.1159 49.1683C19.6745 44.0289 17.2542 38.8788 14.834 33.7287C13.2205 30.2954 11.6071 26.8621 9.98733 23.4319C9.68429 22.639 8.93593 22.2704 8.21911 21.9174C8.08733 21.8525 7.95661 21.7881 7.82993 21.7217C6.80865 21.2488 5.81203 20.7248 4.8155 20.2007Z" fill="#162B30"/>
</svg>
