<svg width="72" height="70" viewBox="0 0 72 70" fill="none" xmlns="http://www.w3.org/2000/svg">
<path fill-rule="evenodd" clip-rule="evenodd" d="M59.4467 0H12.332C10.1247 0.0758789 7.93447 0.713672 6.05459 1.87852C3.88828 3.20742 2.13623 5.2001 1.10195 7.52227C0.414942 9.05147 0.0492188 10.7188 0 12.3936V57.6078C0.0526367 59.4166 0.477832 61.2165 1.27354 62.8435C2.30781 64.979 3.95596 66.8097 5.96778 68.0668C7.86748 69.2652 10.0912 69.9228 12.3341 70H59.4508C62.2679 69.9221 65.0487 68.8864 67.2123 67.0777C69.0731 65.5396 70.4819 63.4608 71.2113 61.1591C71.5955 60.0066 71.7411 58.7952 71.8457 57.5907V12.4052C71.831 12.2654 71.817 12.1254 71.803 11.9854C71.7332 11.2879 71.6633 10.589 71.5005 9.90528C70.8347 6.89815 69.0191 4.17061 66.5137 2.38164C64.4677 0.900977 61.9698 0.0717774 59.4467 0ZM20.0163 17.9003C21.1155 17.8714 22.2147 17.8425 23.314 17.8213C23.4538 17.8192 23.5936 17.817 23.7336 17.8148C25.5786 17.7856 27.4338 17.7562 29.2606 18.0517C30.5819 18.2547 31.8739 18.6464 33.0853 19.2117C34.123 19.7101 35.0814 20.3759 35.9058 21.1805C36.7938 22.0664 37.4979 23.1342 37.9743 24.2949C38.4706 25.5459 38.7454 26.8864 38.7748 28.2331C38.7946 29.6413 38.6436 31.0646 38.204 32.4078C37.5532 34.4648 36.1163 36.2236 34.3267 37.4063C32.4652 38.6456 30.2319 39.1802 28.0321 39.3989C26.7579 39.5233 25.4755 39.5336 24.1972 39.5028C23.6824 39.4605 23.167 39.4557 22.6509 39.457C22.6509 40.2596 22.6508 41.0622 22.6508 41.8648C22.6507 44.2703 22.6505 46.6758 22.6516 49.0814C22.6755 49.2864 22.4943 49.4792 22.2899 49.4772C21.2647 49.4794 20.2394 49.479 19.214 49.4786C18.3461 49.4783 17.4783 49.478 16.6106 49.4792C16.5998 49.479 16.5887 49.4788 16.5776 49.4787C16.4591 49.4769 16.3279 49.4751 16.2436 49.3801C16.1628 49.2886 16.16 49.1622 16.1575 49.0459C16.1573 49.0353 16.157 49.0248 16.1567 49.0144C16.1577 44.2384 16.1576 39.4626 16.1575 34.6868C16.1574 29.2295 16.1573 23.7723 16.1588 18.3148C16.1458 18.1686 16.2251 17.9908 16.3912 17.9854C17.5994 17.9639 18.8078 17.9321 20.0163 17.9003ZM44.046 27.7737C45.6121 26.1994 47.8297 25.4352 50.011 25.2773C51.6565 25.1501 53.3135 25.2376 54.948 25.4509C55.9515 25.5739 56.9454 25.8166 57.8737 26.2192C58.1409 26.3757 58.1395 26.7073 58.1383 26.9872C58.1382 27.0167 58.1381 27.0457 58.1383 27.0737C58.136 27.7299 58.1367 28.386 58.1375 29.0421C58.1385 29.9343 58.1395 30.8265 58.1328 31.7188C58.1198 32.0599 57.6721 32.0694 57.4369 31.971C56.5018 31.4768 55.4901 31.1404 54.4544 30.9354C53.1891 30.6667 51.8916 30.5279 50.5983 30.5826C50.0849 30.6325 49.5626 30.7077 49.082 30.9032C48.5003 31.148 48.1571 31.8309 48.298 32.4434C48.4634 33.0265 48.9788 33.4175 49.4765 33.7149C50.2154 34.1079 50.9763 34.4593 51.7515 34.7758C53.1426 35.2475 54.4838 35.8641 55.7512 36.6058C56.6583 37.1109 57.4957 37.761 58.1253 38.593C58.8164 39.4557 59.2027 40.5323 59.3271 41.6234C59.4433 42.8258 59.3319 44.0658 58.8745 45.1917C58.1568 47.0429 56.5701 48.4825 54.7367 49.1955C52.5 50.1061 50.0281 50.21 47.6472 50.0357C45.8329 49.8668 43.9975 49.5565 42.3377 48.7724C42.1443 48.6787 41.9781 48.486 41.9802 48.2617C41.9804 47.6417 41.9802 47.0216 41.9799 46.4015C41.9794 45.2645 41.9789 44.1274 41.9816 42.9905C41.9713 42.8449 42.0704 42.6542 42.242 42.6877C42.3579 42.7374 42.4672 42.8008 42.5766 42.8641C42.6356 42.8983 42.6946 42.9325 42.7547 42.9646C43.7521 43.5073 44.8226 43.9141 45.9273 44.1759C47.5187 44.5929 49.1873 44.7727 50.8266 44.5901C51.4145 44.4999 52.055 44.3816 52.5014 43.9578C52.8917 43.5634 53.0387 42.903 52.742 42.4129C52.3708 41.7915 51.7016 41.449 51.0706 41.1476C50.472 40.8611 49.853 40.6216 49.2341 40.3821C48.4409 40.0751 47.6479 39.7682 46.898 39.3627C45.904 38.8261 44.8998 38.2649 44.0884 37.4678C43.3487 36.7302 42.7075 35.8607 42.3808 34.8592C41.5618 32.4372 42.2167 29.5702 44.046 27.7737ZM23.6862 23.7146C23.3489 23.7095 23.0118 23.7044 22.6775 23.7583C22.6823 27.1038 22.6823 30.4493 22.6775 33.7948C23.3321 33.8703 23.9907 33.8665 24.649 33.8628C24.8859 33.8615 25.1227 33.8602 25.3593 33.8625C26.7107 33.8707 28.0629 33.6356 29.3316 33.1694C30.2162 32.8091 31.0153 32.2062 31.5636 31.4207C31.9218 30.8786 32.1132 30.2415 32.1959 29.601C32.3101 28.6583 32.2923 27.6746 31.9423 26.7798C31.6832 26.0456 31.1999 25.4017 30.5895 24.9232C29.9079 24.3804 29.0623 24.1028 28.2263 23.9039C27.2131 23.6645 26.1731 23.6805 25.1378 23.6964C24.8933 23.7002 24.6492 23.7039 24.4057 23.7043C24.1664 23.7219 23.9262 23.7183 23.6862 23.7146Z" fill="#162B30"/>
</svg>
