<svg width="73" height="70" viewBox="0 0 73 70" fill="none" xmlns="http://www.w3.org/2000/svg">
<path fill-rule="evenodd" clip-rule="evenodd" d="M60.1957 0H13.3526C10.826 0.051453 8.31674 0.860342 6.25743 2.32855C4.24298 3.7459 2.65692 5.76273 1.75948 8.05718C1.20307 9.46137 0.916489 10.9661 0.879395 12.475V57.525C0.902728 58.1999 0.958369 58.8754 1.08102 59.5407C1.64162 62.7649 3.52324 65.7276 6.18862 67.623C8.2635 69.1211 10.8014 69.9491 13.3573 70H60.1455C62.2562 69.9647 64.3598 69.4119 66.1978 68.3691C68.1386 67.279 69.7827 65.6672 70.9123 63.7491C72.0275 61.8734 72.627 59.7046 72.6743 57.525V12.4732C72.6276 10.3678 72.0682 8.27256 71.023 6.44179C69.818 4.31128 67.9843 2.54274 65.8095 1.42034C64.0816 0.51812 62.142 0.0424786 60.1957 0ZM20.9328 17.8618C21.5473 17.8439 22.1617 17.8261 22.7762 17.8147C23.0932 17.8077 23.4102 17.8 23.7272 17.7924C25.3045 17.7544 26.8822 17.7163 28.4594 17.7567C29.9114 17.8105 31.3677 17.9744 32.7683 18.3711C33.649 18.635 34.5189 18.9538 35.3272 19.3954C36.2318 19.8884 37.0694 20.5076 37.7927 21.2423C38.6387 22.1212 39.3118 23.1652 39.7659 24.2978C40.6268 26.4606 40.7333 28.8711 40.2888 31.1416C40.0561 32.2963 39.6385 33.4205 39.0031 34.4149C37.9788 36.0105 36.4837 37.2909 34.7678 38.0914C32.6666 39.0594 30.3314 39.3777 28.0382 39.4447C27.9124 39.4461 27.7866 39.4479 27.6608 39.4496C26.9283 39.4598 26.1951 39.47 25.4649 39.4118C25.2003 39.3972 24.9349 39.3983 24.6698 39.3993C24.5874 39.3996 24.505 39.4 24.4227 39.3998C24.4218 41.0101 24.422 42.6203 24.4221 44.2304C24.4223 45.8406 24.4224 47.4507 24.4215 49.061C24.4287 49.2615 24.2349 49.4284 24.0392 49.4176L23.4663 49.418C21.7378 49.4191 20.009 49.4202 18.2807 49.417C18.0467 49.4451 17.899 49.2124 17.9307 49.0012C17.9304 43.9351 17.9305 38.8691 17.9307 33.8031C17.9308 28.7372 17.931 23.6713 17.9307 18.6056C17.9319 18.5554 17.9309 18.5049 17.93 18.4543C17.9276 18.3317 17.9252 18.2087 17.954 18.0893C17.9863 17.9732 18.1102 17.917 18.2226 17.92C19.1263 17.9143 20.0296 17.8881 20.9328 17.8618ZM51.1065 28.7168C52.2175 27.4244 53.6271 26.3972 55.1862 25.7133C56.2871 25.2461 57.4795 25.0038 58.6737 24.9804C58.7034 24.9806 58.7341 24.9796 58.7653 24.9785C58.9025 24.9737 59.0482 24.9686 59.1511 25.072C59.2528 25.1599 59.2785 25.2993 59.2738 25.4279C59.2717 27.0012 59.2723 28.5745 59.2729 30.1477C59.273 30.4088 59.2731 30.6699 59.2732 30.931C59.2719 30.9756 59.2726 31.0206 59.2732 31.0656C59.2749 31.1753 59.2765 31.2856 59.251 31.3929C59.1834 31.5742 58.9573 31.5868 58.7939 31.5891C56.7932 31.5317 54.7764 31.9218 52.9516 32.7456C52.4179 33.0089 51.9214 33.3571 51.5241 33.8034C51.5242 34.8241 51.5244 35.8447 51.5245 36.8654C51.5252 40.9322 51.5259 44.9992 51.5235 49.0658C51.542 49.2585 51.4236 49.481 51.207 49.4727C50.0136 49.4812 48.8199 49.48 47.626 49.4787C46.8214 49.4779 46.0167 49.4771 45.2121 49.4792C44.9758 49.5062 44.7473 49.3015 44.7646 49.0616C44.7633 45.5715 44.7636 42.0813 44.7638 38.5911C44.7639 37.195 44.764 35.799 44.764 34.4029C44.7628 34.0156 44.7633 33.6283 44.7638 33.2409C44.7653 32.1318 44.7668 31.0225 44.7269 29.9139C44.7142 29.5334 44.7062 29.1525 44.6982 28.7716C44.6776 27.7951 44.6571 26.8185 44.5564 25.8462C44.5115 25.6744 44.6234 25.5201 44.7838 25.4692C45.8021 25.4949 46.8218 25.4912 47.8416 25.4875C48.603 25.4847 49.3644 25.4819 50.1253 25.4914C50.3658 25.4985 50.5824 25.6655 50.6805 25.8809C50.8076 26.1592 50.8577 26.46 50.9076 26.7599C50.9233 26.8539 50.9389 26.9478 50.9569 27.0409C51.0574 27.5932 51.0981 28.1556 51.1065 28.7168ZM25.5014 23.6845C25.1523 23.6819 24.8032 23.6793 24.455 23.718C24.4497 27.0702 24.4509 30.4225 24.4544 33.7753C25.2471 33.8416 26.0421 33.8383 26.8366 33.835C26.9386 33.8346 27.0406 33.8342 27.1426 33.8339C28.3266 33.8357 29.5124 33.661 30.6402 33.2966C31.6417 33.0101 32.5373 32.3944 33.1931 31.5891C33.8177 30.7766 34.0109 29.7231 34.0223 28.7203C34.0516 28.0078 33.9332 27.2892 33.6633 26.6287C33.3253 25.7516 32.6576 25.0193 31.8493 24.549C31.1176 24.1482 30.3033 23.9137 29.4837 23.7772C28.6793 23.6432 27.8648 23.6543 27.0519 23.6653C26.8054 23.6687 26.5591 23.672 26.3133 23.6713C26.0429 23.6886 25.7721 23.6866 25.5014 23.6845Z" fill="#162B30"/>
</svg>
