<svg width="70" height="70" viewBox="0 0 70 70" fill="none" xmlns="http://www.w3.org/2000/svg">
<path fill-rule="evenodd" clip-rule="evenodd" d="M35.4706 0H34.5249C31.3568 0.0728047 28.1717 0.33107 25.0833 1.07444C23.6816 1.43464 22.2769 1.91361 21.0951 2.77194C20.1908 3.42105 19.4888 4.34606 19.1179 5.39751C18.6887 6.58691 18.5937 7.86444 18.5822 9.11974C18.5798 10.2594 18.5803 11.3989 18.5808 12.5384C18.5813 13.5965 18.5818 14.6545 18.5799 15.7128C22.1367 15.7294 25.6948 15.7267 29.2525 15.7239C31.2608 15.7224 33.2689 15.7208 35.2767 15.7227C35.2868 16.3514 35.2839 16.9806 35.2809 17.6099C35.2805 17.6956 35.2801 17.7813 35.2798 17.867C30.6104 17.8685 25.9399 17.8656 21.2712 17.8627C18.6053 17.8611 15.94 17.8594 13.2759 17.8586C11.3102 17.7712 9.29387 18.0387 7.51667 18.9223C5.32869 19.9699 3.59748 21.8629 2.63415 24.0777C2.10424 25.2356 1.83087 26.4836 1.55969 27.7217C1.54693 27.78 1.53417 27.8382 1.52139 27.8965C1.06847 29.9695 0.771121 32.08 0.702148 34.2021V35.3018C0.758093 37.0369 0.951983 38.7666 1.27616 40.4717C1.53749 41.8121 1.81261 43.154 2.20652 44.4622C2.73608 46.1643 3.52774 47.8173 4.73553 49.1447C5.71954 50.2368 7.00857 51.0606 8.43247 51.4422C9.33142 51.699 10.2717 51.758 11.2029 51.7488H16.477C16.476 50.5354 16.4763 49.3224 16.4767 48.1092C16.4768 47.5026 16.477 46.8959 16.477 46.2892C16.4823 45.9528 16.4795 45.6155 16.4767 45.2781C16.4685 44.2927 16.4603 43.306 16.6533 42.3355C16.9583 40.7047 17.6817 39.1605 18.7041 37.8561C20.5188 35.5172 23.3321 33.9392 26.3026 33.7622C26.7062 33.742 27.1105 33.7438 27.5148 33.7456C27.7231 33.7465 27.9314 33.7474 28.1396 33.7453C30.4122 33.7453 32.6851 33.7452 34.9579 33.745C37.2308 33.7448 39.5036 33.7446 41.7763 33.7446C42.0367 33.7418 42.2974 33.7435 42.5581 33.7452C43.295 33.75 44.032 33.7548 44.7628 33.658C46.2097 33.4564 47.596 32.8548 48.7364 31.9436C50.7098 30.3887 51.913 27.9217 51.9375 25.4127C51.9412 22.1682 51.941 18.9238 51.9407 15.6794C51.9406 13.5945 51.9404 11.5096 51.9413 9.42476C51.9551 8.00162 51.5681 6.57771 50.8355 5.35689C49.3625 2.88383 46.6963 1.28366 43.9083 0.74414C41.1248 0.246003 38.2954 0.0413837 35.4706 0ZM22.8034 7.65445C23.0356 6.43976 24.0403 5.4113 25.258 5.1768C25.9937 5.02352 26.7823 5.1561 27.4291 5.53775C28.2262 5.99911 28.8009 6.82448 28.9573 7.73262C29.1519 8.73273 28.8224 9.8179 28.1051 10.5414C27.5211 11.1498 26.6812 11.507 25.8359 11.484C24.9292 11.487 24.041 11.0502 23.4686 10.3513C22.8493 9.61635 22.6018 8.59248 22.8034 7.65445ZM60.3277 17.8479C58.2294 17.8463 56.131 17.8463 54.0327 17.8479C54.0313 19.0416 54.0316 20.2352 54.0318 21.4289C54.0321 22.742 54.0324 24.0551 54.0304 25.3682C54.0028 27.7041 53.1483 30.0093 51.6838 31.8248C50.043 33.8856 47.6343 35.3601 45.0149 35.7387C44.3076 35.8549 43.5907 35.8518 42.8752 35.8486C42.6898 35.8478 42.5046 35.847 42.3196 35.8483H28.7542C28.4575 35.8535 28.1596 35.8508 27.8614 35.8481C26.9354 35.8398 26.0067 35.8314 25.1048 36.0598C23.8893 36.3403 22.7436 36.9135 21.7772 37.7006C19.803 39.2793 18.5776 41.7585 18.5661 44.2905C18.5636 47.5619 18.5644 50.8329 18.5653 54.104C18.5657 55.7395 18.5661 57.3752 18.5661 59.0109C18.5673 59.1792 18.5665 59.3478 18.5657 59.5166C18.5622 60.2186 18.5588 60.9227 18.7002 61.6134C18.9815 63.1454 19.8368 64.5295 20.9694 65.5817C22.7627 67.2462 25.0756 68.2218 27.4069 68.8671C29.7397 69.5216 32.1469 69.9377 34.5717 69.9914C37.1007 70.058 39.6297 69.7369 42.0836 69.1338C44.0539 68.6548 46.0143 68.0295 47.7631 66.9826C49.1564 66.1519 50.4178 65.0222 51.1696 63.5662C51.6923 62.5676 51.9444 61.4403 51.9551 60.316C51.9572 59.3349 51.9568 58.354 51.9563 57.3731C51.9558 56.2086 51.9552 55.0441 51.959 53.8793C49.0935 53.8734 46.2281 53.8744 43.3626 53.8754C40.6658 53.8763 37.969 53.8772 35.2721 53.8724C35.2752 53.5524 35.2746 53.2327 35.2739 52.9129C35.2732 52.5264 35.2724 52.14 35.2782 51.7534C40.0645 51.7567 44.8508 51.756 49.6371 51.7552C52.7145 51.7548 55.7919 51.7543 58.8693 51.7549C59.0467 51.7544 59.2247 51.7554 59.4031 51.7563C60.514 51.7622 61.6384 51.7683 62.7042 51.417C63.9893 51.0299 65.1006 50.1824 65.9106 49.1232C67.1138 47.553 67.8242 45.6784 68.468 43.8261C69.2022 41.7539 69.6942 39.5897 69.8559 37.3955C70.0735 34.606 69.7961 31.8003 69.2642 29.0613C68.7807 26.7032 68.2733 24.3053 67.1391 22.1602C66.4563 20.8735 65.5159 19.6849 64.2683 18.9078C63.0996 18.1667 61.7025 17.8356 60.3277 17.8479ZM41.5387 61.008C41.6329 59.5956 42.7955 58.338 44.2026 58.1564C45.0609 58.0238 45.9706 58.2775 46.6342 58.8377C47.3017 59.3856 47.7278 60.2194 47.7731 61.0831C47.8374 61.969 47.5117 62.8764 46.8925 63.5148C46.3606 64.0758 45.6134 64.4314 44.8402 64.4705C43.9589 64.5333 43.0653 64.1808 42.4507 63.5493C41.7901 62.8925 41.449 61.9346 41.5387 61.008Z" fill="#162B30"/>
</svg>
