<svg width="79" height="70" viewBox="0 0 79 70" fill="none" xmlns="http://www.w3.org/2000/svg">
<path fill-rule="evenodd" clip-rule="evenodd" d="M27.0334 0.67993C24.8235 0.00368992 22.3299 -0.265493 20.1672 0.712757C18.2475 1.57283 16.9699 3.42034 16.2871 5.35452C15.4927 7.56445 15.2721 9.93589 15.2839 12.2706C15.318 15.5034 15.8577 18.7073 16.6153 21.843C12.5973 22.988 8.63702 24.5545 5.22168 26.9982C3.46345 28.2837 1.82603 29.837 0.834651 31.8027C0.0481116 33.3391 -0.181679 35.1721 0.343556 36.8292C1.08676 39.2479 2.89226 41.1664 4.83694 42.7053C8.29824 45.384 12.4003 47.1068 16.5746 48.3306C15.7881 51.524 15.255 54.7975 15.2655 58.0934C15.2852 60.7852 15.6279 63.5611 16.874 65.985C17.7341 67.6802 19.2139 69.1246 21.0746 69.6486C23.601 70.38 26.2902 69.7825 28.6813 68.8502C32.7886 67.1983 36.3708 64.4737 39.555 61.4391C41.9199 63.7147 44.4896 65.8025 47.3416 67.4399C49.3493 68.5823 51.512 69.5251 53.8086 69.8783C55.534 70.1423 57.3854 70.0097 58.9375 69.1535C60.5316 68.2764 61.6451 66.723 62.3305 65.0685C63.3429 62.6196 63.637 59.9356 63.6186 57.3055C63.6055 54.2172 63.1289 51.1458 62.3962 48.1507C66.4208 46.9335 70.3824 45.2908 73.7741 42.767C75.6321 41.3528 77.3693 39.6209 78.253 37.4188C78.8728 35.9061 78.9135 34.1663 78.3187 32.6392C77.4717 30.4096 75.7214 28.6684 73.8489 27.2595C70.3837 24.7081 66.3315 23.0865 62.2255 21.885C62.8767 19.2037 63.3232 16.4659 63.4532 13.7071C63.5714 10.6253 63.3665 7.43314 62.1152 4.57324C61.2997 2.69946 59.8304 0.99901 57.8345 0.367415C55.2635 -0.453265 52.4994 0.219036 50.082 1.22355C46.0666 2.94369 42.579 5.68148 39.4447 8.68451C38.603 7.8809 37.7324 7.10881 36.8369 6.36823C33.9048 3.97053 30.6719 1.82626 27.0334 0.67993ZM46.9897 6.78579C48.8713 5.49896 50.8883 4.35658 53.089 3.71973C54.4966 3.34287 56.1432 3.075 57.4537 3.88255C58.7195 4.76363 59.2802 6.30651 59.6465 7.7404C60.4068 11.0415 60.1626 14.4818 59.6347 17.7987C59.4535 18.8885 59.2329 19.9718 58.969 21.0446C55.576 20.2633 52.1252 19.7368 48.6599 19.4033C48.477 19.4287 48.3777 19.2877 48.2875 19.1595C48.2754 19.1423 48.2635 19.1254 48.2516 19.1091C46.2754 16.3017 44.1324 13.6099 41.8043 11.0848C43.4155 9.51701 45.1422 8.06605 46.9897 6.78579ZM19.4582 6.46802C19.9086 5.20877 20.7411 3.87336 22.1421 3.57004C23.9555 3.16955 25.8083 3.74599 27.4851 4.41435C31.1 5.95592 34.2462 8.40614 37.0877 11.0835C34.6637 13.6874 32.4394 16.4738 30.3844 19.377C26.8548 19.7066 23.341 20.2318 19.881 21.0092C19.143 18.0206 18.6401 14.9571 18.6454 11.8727C18.6624 10.0475 18.8345 8.19473 19.4582 6.46802ZM44.0694 19.0697C40.9731 18.941 37.8716 18.9345 34.7754 19.071C36.2421 17.1369 37.7941 15.2644 39.4447 13.4839C41.0808 15.2644 42.6171 17.1369 44.0694 19.0697ZM25.0743 35.0054C27.1529 30.7024 29.5414 26.5491 32.2332 22.6006C37.0063 22.2316 41.8082 22.2369 46.5826 22.5993C49.2548 26.553 51.6472 30.6958 53.7652 34.9725C51.6735 39.2755 49.2626 43.4209 46.6273 47.414C41.8529 47.7725 37.0509 47.7502 32.2752 47.4495C29.569 43.4879 27.1516 39.3294 25.0743 35.0054ZM23.2937 31.0582C22.3601 28.8286 21.4843 26.5675 20.808 24.2446C23.1558 23.7273 25.5273 23.3254 27.9132 23.0274C26.2639 25.6404 24.7 28.3073 23.2937 31.0582ZM55.555 31.0543C54.0882 28.3336 52.5611 25.643 50.8961 23.0379C53.3043 23.3333 55.6994 23.7483 58.0669 24.2866C57.3486 26.5845 56.4925 28.8365 55.555 31.0543ZM4.47978 32.2846C5.63793 30.7667 7.20969 29.6243 8.83267 28.6474C11.5429 27.0494 14.5091 25.9332 17.5279 25.0784C18.5718 28.4688 19.8705 31.7778 21.3556 34.9988C19.8731 38.2841 18.5311 41.6391 17.4767 45.0886C15.0895 44.4044 12.7562 43.5142 10.5489 42.3705C8.60419 41.3436 6.72385 40.1264 5.21249 38.5126C4.40362 37.6197 3.65123 36.585 3.45295 35.3691C3.27962 34.2438 3.82193 33.1605 4.47978 32.2846ZM57.4957 34.9581C58.9611 31.7647 60.29 28.5003 61.3142 25.1375C63.4427 25.7153 65.5174 26.4887 67.5172 27.417C69.6602 28.4373 71.748 29.6572 73.4484 31.3327C74.3046 32.2085 75.1187 33.2301 75.3445 34.4644C75.5336 35.5871 74.9939 36.673 74.3492 37.5554C73.2173 39.0589 71.6928 40.2131 70.1079 41.2005C67.4279 42.8432 64.4827 44.0118 61.4796 44.9166C60.3937 41.5065 59.0333 38.1883 57.4957 34.9581ZM58.2205 45.7661C55.7992 46.315 53.3477 46.7207 50.883 47.0149C52.5637 44.3611 54.1211 41.6312 55.5865 38.8527C56.5674 41.1152 57.4721 43.4144 58.2205 45.7661ZM20.7424 45.9092C21.4646 43.5719 22.3233 41.2793 23.2648 39.0221C23.3384 39.1035 23.404 39.1902 23.4618 39.2847C24.8484 41.9477 26.3624 44.5436 27.988 47.0687C25.5548 46.8113 23.1335 46.4279 20.7424 45.9092ZM48.4709 50.6574C51.4857 50.3646 54.4953 49.9772 57.4642 49.3666C57.6795 49.3255 57.8933 49.2778 58.107 49.2301C58.4537 49.1526 58.8003 49.0753 59.1528 49.0265C59.8553 51.9494 60.3097 54.9499 60.2598 57.9621C60.2243 59.7715 60.0181 61.602 59.4089 63.3155C59.0005 64.4133 58.4149 65.5425 57.3828 66.1702C56.3008 66.7795 54.9903 66.6994 53.8138 66.4669C51.5632 65.985 49.499 64.8899 47.5832 63.6451C45.5361 62.3018 43.6558 60.7196 41.8923 59.0244C44.2808 56.3969 46.4658 53.5869 48.4709 50.6574ZM18.6362 58.7631C18.543 55.525 19.0629 52.3014 19.8285 49.1644C23.3265 49.905 26.8732 50.4039 30.4356 50.6889C32.5155 53.6066 34.753 56.4153 37.1967 59.0375C35.4109 60.7603 33.478 62.3386 31.3863 63.6753C29.4311 64.9096 27.3223 65.9811 25.0414 66.4472C23.878 66.6652 22.607 66.748 21.5132 66.2214C20.5297 65.7159 19.9283 64.714 19.5278 63.72C18.908 62.1456 18.6979 60.4438 18.6362 58.7631ZM39.5208 56.6135C37.8624 54.7975 36.2841 52.9106 34.7977 50.9515C37.9163 51.0671 41.0401 51.071 44.1587 50.9344C42.6972 52.8936 41.1898 54.8264 39.5208 56.6135ZM43.3537 29.1213C41.9106 28.1247 40.0841 27.7216 38.3521 27.9842C36.6963 28.2271 35.1456 29.0938 34.0623 30.3675C32.9396 31.6674 32.3264 33.3928 32.3815 35.109C32.4131 37.1443 33.4018 39.1336 34.9906 40.4008C36.4127 41.5589 38.3036 42.1209 40.1274 41.9213C42.0065 41.7401 43.787 40.7487 44.9412 39.2571C46.0298 37.8757 46.5642 36.0728 46.4014 34.3212C46.2399 32.2452 45.0778 30.2834 43.3537 29.1213Z" fill="#162B30"/>
</svg>
