<svg width="75" height="70" viewBox="0 0 75 70" fill="none" xmlns="http://www.w3.org/2000/svg">
<path fill-rule="evenodd" clip-rule="evenodd" d="M36.3533 0H36.8346C39.2088 0.0365721 41.5665 0.614057 43.7019 1.64869C45.652 2.5919 47.4299 3.8849 48.9441 5.43272C51.7519 8.27649 53.6778 11.9036 54.8133 15.7148C55.5394 18.1114 55.9317 20.5954 56.1488 23.0858L55.8006 22.9722C54.3641 22.5031 52.9261 22.0335 51.4569 21.6766C51.2587 19.3578 50.6358 17.0909 49.7717 14.9361C48.9441 12.9034 47.8723 10.9575 46.4825 9.25391C45.2279 7.71552 43.6836 6.383 41.8774 5.53772C39.9444 4.60926 37.7324 4.32494 35.6153 4.61398C33.221 4.92838 30.8781 5.69698 28.7935 6.92156C27.7163 7.55449 26.7206 8.3343 25.8795 9.2604C24.4892 10.9002 23.2911 12.7076 22.3686 14.6512C20.9098 17.7133 20.1123 21.0726 19.9212 24.4537C19.736 27.0498 19.805 29.6664 20.1737 32.2442C20.8143 36.7956 22.4116 41.2079 24.8095 45.1276C25.2696 44.9956 25.7568 45.0391 26.2283 45.0811L26.306 45.088C28.2685 45.3092 30.018 46.7527 30.6321 48.6267C31.0592 49.8831 30.9884 51.2982 30.4262 52.5015C29.8057 53.863 28.5787 54.933 27.1389 55.3465C25.9662 55.6857 24.6767 55.6025 23.5566 55.1176C22.667 54.7195 21.8807 54.0836 21.3286 53.279C20.7582 52.4673 20.4379 51.487 20.3996 50.4972C20.3194 49.5498 20.5146 48.5571 21.0543 47.7637C19.9584 45.8702 18.9892 43.9018 18.1693 41.8726C16.2516 37.1484 15.1597 32.0643 15.1904 26.956C15.204 23.0103 15.9053 19.0711 17.2196 15.3514C17.8572 13.3476 18.7928 11.4423 19.9336 9.67744C22.0058 6.49862 24.859 3.79995 28.2478 2.06927C30.7471 0.779811 33.5384 0.0471897 36.3533 0ZM31.2562 21.5952C32.5456 21.3333 33.9342 21.574 35.049 22.2777C35.8424 22.7649 36.4801 23.4816 36.9136 24.3033C37.1922 24.3045 37.4708 24.3036 37.7493 24.3026C38.2977 24.3007 38.846 24.2989 39.394 24.3133C44.2953 24.4107 49.1954 25.309 53.7639 27.104C56.4402 28.1658 59.0037 29.5213 61.3621 31.1753C63.1051 32.3911 64.7332 33.7696 66.232 35.2761C67.6566 36.7337 69.0156 38.2679 70.1594 39.9585C71.4046 41.803 72.4115 43.811 73.1034 45.9268C73.7977 48.0339 74.1611 50.2453 74.1959 52.4632V52.9451C74.1316 55.5931 73.5801 58.2788 72.2729 60.6029C71.6648 61.6664 70.9162 62.6462 70.0798 63.5404C67.0177 66.7871 62.832 68.877 58.4563 69.6468C55.5276 70.1723 52.5045 70.0963 49.5894 69.5194C47.0594 69.0227 44.602 68.1803 42.2691 67.0873C43.7231 66.0261 45.1382 64.9101 46.4843 63.7144C47.3656 64.1055 48.2757 64.427 49.2001 64.7013C51.7536 65.4422 54.434 65.8327 57.0937 65.6292C59.3494 65.4522 61.585 64.7862 63.5068 63.5776C65.3425 62.4297 66.8532 60.8046 67.9798 58.9642C68.5449 58.0511 69.0109 57.0737 69.3247 56.0455C69.983 53.9515 70.0066 51.6887 69.54 49.5522C69.3147 48.4957 68.962 47.4705 68.5426 46.4766C68.0813 45.3505 67.538 44.2575 66.9116 43.2146C64.7951 39.6789 61.7396 36.7579 58.2599 34.5771C57.1569 33.871 56.0196 33.2169 54.8475 32.6317C50.6724 30.5094 46.0702 29.2329 41.3978 28.9008C40.2026 28.806 39.0032 28.8067 37.8042 28.8073H37.8041C37.5706 28.8074 37.3371 28.8076 37.1036 28.807C36.3161 30.6881 34.3554 32.0059 32.3132 32.0006C31.2815 32.0011 30.2493 31.6921 29.3969 31.1099C28.3534 30.4191 27.5707 29.3426 27.2445 28.1334C27.0085 27.2603 26.9914 26.3248 27.2173 25.4483C27.4775 24.4242 28.0543 23.4834 28.8495 22.7873C29.5267 22.1851 30.3702 21.7787 31.2562 21.5952ZM11.3934 32.5627C9.68043 33.7967 8.08424 35.1941 6.6479 36.7419C5.07294 38.4514 3.71683 40.3685 2.67924 42.4501C1.33846 45.1382 0.57104 48.1105 0.461914 51.1136V52.2379C0.523851 54.6257 0.972743 57.0129 1.87053 59.2308C2.41498 60.584 3.12636 61.8776 4.04715 63.0125C5.80379 65.2062 8.19395 66.8384 10.7794 67.906C14.6141 69.504 18.886 69.9494 22.9921 69.4061C23.7061 69.322 24.4071 69.1674 25.1083 69.0126C25.4504 68.9372 25.7924 68.8617 26.1361 68.7944C30.8409 67.7757 35.38 65.9182 39.3616 63.1995C42.8035 60.8547 45.8124 57.8865 48.2274 54.4947C49.4938 52.7275 50.5951 50.8446 51.5525 48.8933C52.6573 48.7618 53.7291 48.2969 54.5431 47.5319C55.3831 46.7621 55.9588 45.7121 56.1588 44.5908C56.4337 43.1096 56.0326 41.5175 55.0811 40.3484C54.4641 39.581 53.6288 38.9893 52.698 38.6667C51.5714 38.2803 50.3084 38.2762 49.1883 38.6897C47.6894 39.2164 46.4825 40.4758 45.9918 41.9829C45.3753 43.7986 45.8938 45.9333 47.2346 47.2942C46.1935 49.3363 44.9418 51.2746 43.4671 53.0307C41.9411 54.8628 40.1904 56.5021 38.2992 57.952C36.4936 59.3435 34.5494 60.5462 32.5539 61.6446C30.6439 62.6987 28.6307 63.577 26.5301 64.1727C23.3672 65.0794 20.0209 65.3549 16.7536 64.9602C13.9128 64.6264 11.0861 63.59 8.9366 61.6605C7.55689 60.4448 6.53759 58.8745 5.77371 57.214C4.75087 54.9996 4.31142 52.5086 4.5981 50.0813C4.83758 47.9401 5.62388 45.8938 6.66796 44.021C7.67782 42.2484 8.96315 40.6386 10.4237 39.2164C11.1109 38.5458 11.84 37.9175 12.6115 37.346C12.1325 35.7716 11.709 34.1784 11.3934 32.5627Z" fill="#162B30"/>
</svg>
