<svg width="71" height="70" viewBox="0 0 71 70" fill="none" xmlns="http://www.w3.org/2000/svg">
<path fill-rule="evenodd" clip-rule="evenodd" d="M37.4887 0H34.2928C28.6206 0.284375 23.0118 1.90094 18.125 4.80812C11.4925 8.69749 6.20529 14.8334 3.37029 21.9822C1.88717 25.609 1.11717 29.494 0.894043 33.3965V36.6012C1.17404 42.269 2.79498 47.8756 5.69779 52.7625C9.58935 59.4015 15.734 64.6953 22.8893 67.5303C26.5162 69.0112 30.3968 69.779 34.3015 69.9999H37.4931C38.5038 69.9334 39.51 69.8196 40.5155 69.7058C40.7331 69.6812 40.9506 69.6566 41.1681 69.6324C48.0893 68.5956 54.6715 65.4149 59.7771 60.6243C64.8674 55.8971 68.514 49.6212 70.0299 42.8356C70.5206 40.9633 70.6859 39.0299 70.8505 37.1052C70.8649 36.9364 70.8794 36.7677 70.894 36.599V33.3987C70.6096 27.7309 68.9974 22.1265 66.0924 17.2419C62.2009 10.6006 56.0562 5.30468 48.8965 2.46969C45.2718 0.990937 41.3912 0.216562 37.4887 0ZM32.4553 11.6266C35.5221 10.3228 38.694 9.13937 42.0256 8.74999C45.6415 8.27749 49.4478 8.37812 52.8603 9.7803C54.759 10.5831 56.5746 11.8825 57.454 13.8053C58.609 16.31 58.2153 19.2478 57.174 21.7197C55.4131 25.7294 52.0443 28.9494 48.0718 30.7453C44.0359 32.4493 39.5515 33.2893 35.1896 32.6287C33.584 32.3115 32.0396 31.5481 30.8956 30.3647C30.41 29.8156 29.9528 29.1681 29.8762 28.42C29.7122 28.0219 30.3509 27.9059 30.5543 28.1269C30.6865 28.2416 30.8162 28.3608 30.946 28.4801C31.4201 28.9156 31.897 29.3538 32.51 29.5925C35.4171 30.9903 38.7728 30.4456 41.7696 29.645C46.2081 28.3981 50.4299 25.784 52.9324 21.8378C53.9103 20.1578 54.7481 18.095 54.0699 16.1525C53.6849 14.9537 52.6087 14.1641 51.4974 13.6828C49.404 12.8253 47.1049 12.6962 44.8693 12.8319C38.8296 13.3525 33.1968 15.9359 28.1 19.0925C25.4356 20.7922 22.8193 22.715 20.9403 25.2962C19.6365 27.0637 18.7506 29.2775 19.0175 31.5022C19.3303 33.6875 20.8025 35.4747 22.3928 36.9075C23.4179 37.8449 24.5217 38.6917 25.6249 39.538C27.2197 40.7614 28.8134 41.984 30.1671 43.4787C32.3656 42.794 34.6865 42.6803 36.9725 42.7831C39.2475 42.9843 41.5334 43.8068 43.209 45.3993C44.6681 46.7731 45.6109 48.7506 45.4993 50.7784C45.4118 52.1521 44.6659 53.4384 43.5459 54.2281C42.9531 54.635 42.2837 55.0768 41.5268 54.9696C41.529 54.8471 41.5312 54.6043 41.5312 54.4818C41.675 54.3709 41.8235 54.2626 41.9729 54.1537C42.6393 53.6677 43.3203 53.1711 43.6509 52.3884C44.4143 50.89 43.7668 49.0743 42.7103 47.8931C41.4503 46.4406 39.58 45.7122 37.7293 45.3775C35.7125 44.9903 33.6103 45.0209 31.6175 45.5262C32.7725 48.9256 32.4575 52.8543 30.5828 55.9409C29.069 58.3778 26.654 60.2503 23.8978 61.0596C22.0931 61.5278 20.155 61.5803 18.3568 61.0531C17.1209 60.5696 16.4406 59.2812 16.0797 58.0737C15.4322 55.4443 16.5609 52.6465 18.4553 50.8046C21.0343 48.2672 24.1712 46.3728 27.3868 44.7562C26.3563 43.8615 25.2301 43.0917 24.1045 42.3222C23.689 42.0382 23.2736 41.7542 22.8631 41.464C20.2381 39.6309 17.6065 37.6928 15.6465 35.1268C14.299 33.3287 13.2468 31.0625 13.75 28.7678C14.6162 24.9944 17.1734 21.8662 19.98 19.3156C23.6418 16.0366 27.9687 13.5866 32.4553 11.6266ZM28.9334 46.7009C26.7022 47.845 24.5431 49.1946 22.7515 50.9643C21.4434 52.2681 20.3606 53.9153 20.1156 55.779C20.0347 56.3806 20.1309 57.085 20.6144 57.5071C21.2203 57.9731 22.0581 57.9315 22.7581 57.739C25.2715 57.1134 27.3125 55.1753 28.4347 52.885C29.3928 50.9818 29.4234 48.7397 28.9334 46.7009Z" fill="#162B30"/>
</svg>
