<svg width="118" height="70" viewBox="0 0 118 70" fill="none" xmlns="http://www.w3.org/2000/svg">
<path fill-rule="evenodd" clip-rule="evenodd" d="M61.2371 0H57.5977C51.2849 0.305657 44.7886 1.97251 39.8655 6.11722C34.6775 10.4616 31.6291 16.7989 29.9744 23.2544C32.9332 19.452 36.6582 15.9594 41.3938 14.6063C46.1335 13.3063 51.5131 14.0521 55.5193 16.9782C57.8363 18.6472 59.8306 20.6776 61.8254 22.7085C62.9287 23.8318 64.0321 24.9552 65.1903 26.0176C68.6788 29.2657 72.7502 31.9921 77.3513 33.3696C84.2511 35.4563 91.7784 35.5785 98.727 33.6386C104.494 32.041 109.596 28.2713 112.82 23.23C115.106 19.8392 116.463 15.9553 117.674 12.0796L117.702 12.6787V11.7617C114.833 15.3318 111.389 18.7225 106.943 20.1897C101.731 21.9217 95.5971 20.9436 91.3301 17.4225C89.3194 15.8322 87.5169 14.0098 85.7144 12.1874C83.5858 10.0352 81.4572 7.88298 78.9856 6.11315C73.9198 2.20888 67.5662 0.334185 61.2371 0ZM27.6433 35.0854C21.0615 35.3829 14.3166 37.5022 9.49948 42.1482C5.00428 46.3214 2.40008 52.0881 0.810662 57.916L0.737305 57.1539V58.2869C3.48822 54.6557 7.00124 51.3749 11.3823 49.867C16.3666 48.1716 22.2108 48.9419 26.4574 52.1126C28.6116 53.6898 30.4805 55.5875 32.3501 57.4859C33.2536 58.4032 34.1572 59.3207 35.0932 60.2023C38.431 63.4138 42.2415 66.2462 46.6267 67.8478C53.0088 70.2279 60.0634 70.5091 66.7267 69.3028C72.4323 68.2635 77.8159 65.3455 81.5735 60.8951C85.0295 56.8686 87.1039 51.864 88.4447 46.7738C85.6367 50.3031 82.2419 53.6246 77.8852 55.1121C72.7054 56.8971 66.5677 56.0372 62.2722 52.565C60.1522 50.9282 58.2683 49.0265 56.3847 47.1252C54.2021 44.9219 52.0199 42.7191 49.4713 40.9296C43.2807 36.2469 35.2725 34.6168 27.6433 35.0854Z" fill="#162B30"/>
</svg>
