<svg width="68" height="70" viewBox="0 0 68 70" fill="none" xmlns="http://www.w3.org/2000/svg">
<path d="M46.4047 0.89885C46.8876 0.355651 47.5867 0.00525474 48.3193 0.00190166C49.0738 -0.0299526 49.7561 0.343916 50.3898 0.707725C55.6257 3.85627 60.8699 6.99307 66.104 10.1416C66.9289 10.6228 67.4503 11.56 67.4252 12.5139C67.4285 27.2121 67.4252 41.9104 67.4268 56.6086C67.4185 57.2239 67.4822 57.866 67.2525 58.4544C67.0329 59.0597 66.5752 59.5593 66.0219 59.8778C61.3024 62.7112 56.583 65.5429 51.8652 68.3745C51.0135 68.8641 50.2004 69.4324 49.2951 69.8214C48.6043 70.1198 47.7895 70.0276 47.1424 69.6688C46.6512 69.4006 46.3008 68.9529 45.9219 68.5556C38.7647 60.8821 31.6009 53.2136 24.4437 45.5401C20.0931 49.1614 15.7475 52.7894 11.3952 56.4107C10.5871 57.1065 9.36325 57.2742 8.41433 56.7746C6.21974 55.6697 4.01509 54.5867 1.82553 53.4701C0.378676 52.7039 0.0299563 50.5429 1.17336 49.3659C5.63966 44.566 10.1194 39.7795 14.589 34.9846C10.1177 30.1863 5.63463 25.3981 1.16665 20.5948C0.0400155 19.4213 0.373647 17.2719 1.81044 16.5058C4.00503 15.3892 6.21471 14.2978 8.41768 13.1963C9.40181 12.6816 10.6793 12.871 11.4807 13.6372C15.6218 17.4262 19.7544 21.2235 23.8955 25.0142C31.3997 16.9769 38.9005 8.93618 46.4047 0.89885ZM51.3337 7.53459C51.3321 25.834 51.3321 44.1334 51.3337 62.4329C54.9115 60.2836 58.4959 58.146 62.0669 55.9849C62.0602 41.9858 62.0535 27.9884 62.0703 13.9893C58.5043 11.8165 54.9182 9.67721 51.3337 7.53459ZM27.8538 28.6405C29.2034 29.8711 30.5447 31.1101 31.8926 32.3407C36.5886 28.4343 41.2879 24.5313 45.9705 20.6099C45.9621 16.8159 45.9705 13.0236 45.9671 9.22957C39.9282 15.701 33.886 22.1658 27.8538 28.6405ZM7.57774 19.6124C20.3781 33.3164 33.1684 47.0305 45.9655 60.7396C45.9671 58.0705 45.9671 55.4015 45.9671 52.7324C46.0225 52.4927 45.7794 52.3703 45.6452 52.2244C33.4719 41.0972 21.3472 29.9164 9.15704 18.806C8.63899 19.0893 8.10417 19.3425 7.57774 19.6124ZM35.8895 36.0056C39.2476 39.0854 42.6057 42.1635 45.9655 45.2416C45.9671 39.3637 45.9688 33.4874 45.9655 27.6095C42.6057 30.4059 39.2425 33.2007 35.8895 36.0056ZM7.57774 50.3568C8.1377 50.6401 8.70102 50.9218 9.26266 51.2017C13.1003 48.0063 16.9395 44.8124 20.7704 41.6103C19.9322 40.7133 19.0972 39.8147 18.259 38.9194C14.693 42.7268 11.1421 46.5477 7.57774 50.3568Z" fill="#162B30"/>
</svg>
