<svg width="83" height="70" viewBox="0 0 83 70" fill="none" xmlns="http://www.w3.org/2000/svg">
<path d="M0.742188 0.00729754C11.4365 0.00182451 22.1326 0.0182434 32.8269 0C35.7787 5.37086 38.6703 10.7782 41.602 16.1618C45.0226 10.7782 48.4013 5.36904 51.8384 0C62.0456 0.0200678 72.2546 0.00182451 82.4618 0.00729754C68.8449 23.3406 55.2225 46.6703 41.602 70C27.9814 46.6703 14.3609 23.3388 0.742188 0.00729754ZM10.9038 5.84702C21.1365 23.3698 31.3674 40.8926 41.6056 58.4118C51.8347 40.8926 62.0602 23.3716 72.2819 5.84702C69.0091 5.84519 65.738 5.84519 62.467 5.84702C55.5345 17.8567 48.6075 29.8718 41.6658 41.8759C41.6348 41.8759 41.5691 41.8759 41.5381 41.8759C34.591 29.8718 27.6585 17.8585 20.7206 5.84884C17.4477 5.84337 14.1766 5.84519 10.9038 5.84702Z" fill="#162B30"/>
</svg>
