<svg width="71" height="70" viewBox="0 0 71 70" fill="none" xmlns="http://www.w3.org/2000/svg">
<path fill-rule="evenodd" clip-rule="evenodd" d="M18.6107 0H17.2832C15.1559 0.859036 13.0291 1.71895 10.9022 2.57886C7.41169 3.99011 3.92123 5.40133 0.429199 6.8086V9.01182C1.36226 16.8413 2.29613 24.6707 3.23 32.5C4.55738 43.6285 5.88475 54.7568 7.20977 65.8855C12.2117 66.3865 17.2138 66.8859 22.2159 67.3853L22.2704 67.3907L22.3251 67.3962C30.9904 68.2613 39.6558 69.1264 48.3204 70H50.7479C51.2289 68.3234 51.7071 66.6459 52.1854 64.9685C52.9482 62.2928 53.7111 59.6171 54.4851 56.9447C54.9403 56.7909 55.3512 56.5387 55.7477 56.2714C59.9385 53.8418 64.1228 51.4007 68.307 48.9597L68.3075 48.9594L70.4292 47.7217V45.4385C68.6929 41.419 66.9566 37.4001 65.2202 33.3813C65.1557 33.2203 65.0842 33.0615 65.0128 32.9027L65.0127 32.9024L65.0126 32.9023C64.8988 32.6492 64.785 32.3963 64.6993 32.1351C65.984 30.4585 67.2794 28.7892 68.5745 27.1201C69.1932 26.3228 69.8118 25.5256 70.4292 24.7276V23.2887C69.2971 19.7342 68.1681 16.1786 67.0391 12.6231L67.0391 12.6229L67.039 12.6228L67.0389 12.6225L67.0388 12.6222C65.8562 8.89778 64.6735 5.17331 63.4873 1.4499C58.6752 1.3769 53.863 1.31923 49.0509 1.26156L49.0508 1.26156L47.9403 1.24824C47.4424 1.24739 46.9443 1.23731 46.4463 1.22722C45.7403 1.21292 45.0344 1.19862 44.3289 1.21064C42.4835 2.19735 40.641 3.19047 38.7985 4.18359L38.7974 4.18419L38.7972 4.1843C37.2345 5.02663 35.6717 5.86897 34.1071 6.70742C33.7001 6.55524 33.2986 6.37735 32.8972 6.19945C32.6441 6.08727 32.3909 5.97508 32.1363 5.86934C29.803 4.8614 27.472 3.84779 25.141 2.83419L25.141 2.83417L25.1409 2.83413C22.9648 1.88787 20.7887 0.941626 18.6107 0ZM6.89078 13.8404C6.76301 12.7809 6.63523 11.7213 6.51729 10.6606C8.20416 9.97352 9.89172 9.28803 11.5793 8.60254L11.5806 8.60201C13.6785 7.74982 15.7765 6.89763 17.8731 6.04229C19.808 6.87705 21.7387 7.72241 23.6695 8.56779C24.9926 9.14713 26.3158 9.72648 27.6403 10.3024C26.8036 10.764 25.9785 11.2478 25.1535 11.7316C24.5757 12.0703 23.998 12.4091 23.4164 12.7401C23.3557 12.7691 23.2881 12.7663 23.2209 12.7635C23.1867 12.762 23.1527 12.7606 23.1197 12.7634C22.1231 12.7622 21.1263 12.7624 20.1295 12.7626H20.1276H20.1275H20.1275C19.4628 12.7628 18.7982 12.763 18.1336 12.7627C16.6358 12.721 15.1347 13.423 14.2207 14.6125C13.5467 15.4636 13.1666 16.5491 13.1885 17.6367C13.1888 20.5803 13.1888 23.5236 13.1888 26.467V26.4917V26.5163C13.1888 29.4597 13.1888 32.4031 13.1892 35.3466C13.1926 35.4543 13.1908 35.5629 13.189 35.6717C13.1844 35.9489 13.1798 36.2273 13.2623 36.4943C13.4024 36.9988 13.7634 37.4343 14.2234 37.6811C14.8934 38.0338 15.7752 37.9559 16.3515 37.4568C16.7965 37.0952 17.0631 36.5292 17.0576 35.9557C17.0583 30.4411 17.0583 24.9266 17.0583 19.412C17.085 18.511 17.5724 17.6395 18.3216 17.1391C18.8213 16.7877 19.4379 16.6202 20.0463 16.6325C24.1639 16.6322 28.2815 16.6322 32.3991 16.6321H32.3992H32.3992C38.5813 16.6321 44.7636 16.632 50.9461 16.6312C51.8232 16.6257 52.6817 17.0748 53.2054 17.7734C53.5964 18.2766 53.7953 18.9157 53.7994 19.5501C53.8016 20.22 53.8011 20.89 53.8006 21.5601V21.5601V21.5602C53.8 22.3712 53.7994 23.1823 53.8035 23.9935C53.8131 24.9047 54.5541 25.7312 55.4578 25.8433C56.285 25.9738 57.1586 25.4974 57.4929 24.729C57.6809 24.3517 57.6768 23.9231 57.6686 23.5122C57.668 22.6629 57.6682 21.8137 57.6683 20.9644C57.6685 19.8312 57.6688 18.6981 57.6672 17.5649C57.6617 16.342 57.1764 15.1218 56.3144 14.2502C55.4107 13.298 54.1036 12.7422 52.7904 12.7634C50.7964 12.763 48.8022 12.763 46.8079 12.763C44.8151 12.763 42.8223 12.763 40.8296 12.7627C40.113 12.7604 39.3966 12.7616 38.6802 12.7628C37.5062 12.7647 36.3323 12.7667 35.1585 12.7531C37.1908 11.668 39.2182 10.5733 41.2456 9.47858C42.7317 8.67618 44.2178 7.87379 45.7057 7.0752C45.7739 7.0413 45.8499 7.04441 45.9255 7.04751C45.9582 7.04885 45.9909 7.05019 46.0229 7.04854C47.0623 7.06275 48.1017 7.07647 49.1412 7.09019L49.1423 7.09021L49.1434 7.09022C52.5017 7.13455 55.8602 7.17888 59.2183 7.23994C60.1555 10.202 61.0968 13.1629 62.0381 16.1239L62.0397 16.1288L62.0406 16.1319C62.7853 18.4744 63.5301 20.817 64.2728 23.1602C62.6024 25.3025 60.9354 27.4478 59.2685 29.593L57.9454 31.2956C58.7966 33.2631 59.6488 35.2302 60.5009 37.1973C61.6025 39.7404 62.7042 42.2834 63.8038 44.8274C62.9481 45.3422 62.0902 45.8538 61.2323 46.3655L61.2314 46.3661L61.2304 46.3667L61.2295 46.3672L61.2286 46.3678C60.641 46.7182 60.0534 47.0687 59.4664 47.4202C59.2394 47.5522 59.0145 47.6881 58.7896 47.824L58.7895 47.8241L58.7894 47.8241C58.4192 48.0478 58.049 48.2715 57.6693 48.4777C57.6672 45.6247 57.6676 42.7716 57.6679 39.9185V39.9047C57.6682 37.9055 57.6684 35.9062 57.6679 33.9069C57.6667 33.8168 57.6677 33.7259 57.6686 33.6348C57.6727 33.2567 57.6768 32.8743 57.5264 32.5206C57.216 31.7071 56.3075 31.1767 55.4469 31.3277C54.5322 31.444 53.7885 32.2998 53.8015 33.2213C53.801 36.9582 53.8012 40.6952 53.8013 44.4323L53.8015 50.0384C53.8013 50.094 53.8015 50.1498 53.8018 50.2057V50.2058C53.8033 50.5194 53.8048 50.8359 53.7235 51.141C53.4986 52.1234 52.7221 52.9505 51.7589 53.2424C51.3427 53.382 50.9072 53.3758 50.4733 53.3696C50.3122 53.3673 50.1514 53.365 49.9918 53.3702C49.8182 53.3812 49.65 53.3395 49.4901 53.2786C49.4771 53.3005 49.4497 53.3442 49.436 53.3661C43.203 53.3705 36.9694 53.3696 30.7357 53.3687C27.1281 53.3682 23.5205 53.3677 19.913 53.3682C18.6921 53.3812 17.5396 52.5109 17.1916 51.3454C17.0497 50.9362 17.0534 50.5044 17.057 50.0765C17.0579 49.9725 17.0588 49.8688 17.0576 49.7656C17.0574 49.328 17.0576 48.8903 17.0578 48.4526V48.4469C17.0581 47.6553 17.0585 46.8637 17.0563 46.0722C17.0522 45.5677 16.8519 45.0639 16.4902 44.7084C15.9762 44.1738 15.1354 43.992 14.4442 44.2607C13.7025 44.5279 13.1693 45.2888 13.1892 46.079C13.1895 46.9768 13.1894 47.8747 13.1893 48.7725C13.1892 49.9692 13.1891 51.1659 13.1898 52.3626C13.1741 53.5787 13.6376 54.7976 14.4716 55.6849C15.3199 56.6098 16.5408 57.1861 17.7966 57.236C22.2239 57.2368 26.6513 57.2364 31.0789 57.236H31.0789H31.079C36.8327 57.2355 42.5865 57.235 48.3402 57.2373C48.0939 58.1042 47.8456 58.9705 47.5974 59.8367L47.5966 59.8394L47.5964 59.8402C47.2056 61.2038 46.8148 62.5673 46.4317 63.9331C35.1045 62.812 23.778 61.6855 12.4529 60.5432C11.3477 51.2023 10.2331 41.8623 9.11849 32.5222C8.44899 26.9119 7.77949 21.3017 7.11201 15.6912C7.03957 15.0742 6.96518 14.4573 6.89078 13.8404ZM47.2916 20.3875C45.8882 20.123 44.3966 20.1079 43.0424 20.6097C41.9883 20.9809 41.0374 21.6911 40.4611 22.6577C39.9539 23.4822 39.7564 24.4699 39.8083 25.4297C39.8247 26.3116 40.036 27.2187 40.5753 27.9324C41.1946 28.7554 42.1428 29.2462 43.0875 29.6003C43.7196 29.8485 44.3741 30.028 45.0286 30.2074C45.7565 30.4069 46.4843 30.6064 47.1809 30.9005C47.5821 31.0817 48.0039 31.31 48.2213 31.7113C48.4592 32.2103 48.3717 32.8631 47.9684 33.2534C47.5288 33.6889 46.8862 33.8242 46.2895 33.8653C45.4774 33.8871 44.655 33.7873 43.8901 33.505C42.8865 33.1612 42.0136 32.5411 41.1714 31.9122C40.7257 32.4613 40.2818 33.0119 39.8379 33.5624L39.8332 33.5681C39.5951 33.8635 39.3569 34.1588 39.1186 34.4538C40.3586 35.5141 41.842 36.2859 43.4163 36.7145C44.5948 37.0289 45.8321 37.2108 47.0503 37.0488C48.3334 36.899 49.6179 36.413 50.5414 35.4847C51.3768 34.6603 51.83 33.4982 51.8792 32.334C51.936 31.3073 51.7425 30.2183 51.0972 29.3898C50.3746 28.4526 49.2693 27.9187 48.181 27.5256C47.6198 27.3094 47.0374 27.1588 46.4553 27.0083L46.4552 27.0082C45.7454 26.8247 45.0359 26.6412 44.3651 26.3389C44.0069 26.1666 43.631 25.9438 43.4608 25.5664C43.2782 25.1317 43.2878 24.595 43.5612 24.1999C43.8347 23.8028 44.3057 23.5949 44.7664 23.5095C45.5307 23.3728 46.3093 23.5444 47.0455 23.7501C47.954 24.0017 48.7832 24.4734 49.5447 25.0175C50.1552 24.0974 50.7759 23.1848 51.4014 22.2749C50.2058 21.3323 48.786 20.6787 47.2916 20.3875ZM18.9683 20.5017H22.7998C23.1882 21.9784 23.5719 23.4562 23.9556 24.934C24.3891 26.6037 24.8226 28.2733 25.2628 29.9414C25.7291 28.3095 26.2055 26.6803 26.682 25.0512L26.682 25.051C27.124 23.5397 27.566 22.0283 27.9999 20.5147C28.9214 20.4928 29.8463 20.4935 30.7678 20.5147C31.2164 22.0679 31.6697 23.62 32.1231 25.1722L32.1232 25.1727L32.1233 25.1727C32.5811 26.7401 33.0389 28.3076 33.4919 29.8765C33.545 29.854 33.5548 29.7993 33.5645 29.7456L33.5645 29.7455C33.5696 29.7176 33.5746 29.69 33.5856 29.6673C33.9546 28.238 34.3272 26.8095 34.6997 25.3809L34.7004 25.3784L34.7004 25.3783C35.1232 23.757 35.546 22.1357 35.9638 20.5133C36.7475 20.4969 37.5315 20.4994 38.3156 20.5018C38.8097 20.5033 39.3039 20.5048 39.7981 20.5017C39.3045 22.2378 38.8018 23.9716 38.299 25.7054L38.2986 25.7069C37.9764 26.8181 37.6542 27.9293 37.3344 29.0411C37.0487 30.0231 36.7654 31.0059 36.4822 31.9887L36.4818 31.99C36.0176 33.6004 35.5535 35.2108 35.0785 36.8177C34.0661 36.8156 33.0537 36.8156 32.042 36.8177C31.154 33.6779 30.2667 30.5382 29.3944 27.395C28.895 29.1143 28.412 30.8387 27.9289 32.5632L27.9289 32.5634C27.5314 33.9826 27.1338 35.4019 26.7271 36.8184C26.1475 36.816 25.5679 36.8164 24.9883 36.8167C24.5535 36.8169 24.1186 36.8172 23.6837 36.8163C23.0252 34.5345 22.3648 32.2533 21.7044 29.972L21.7043 29.9716L21.7042 29.9715C20.7906 26.8153 19.8769 23.6592 18.9683 20.5017ZM34.5918 45.8774C29.6795 45.876 24.7679 45.8753 19.8556 45.8767V49.7916C23.0142 49.7938 26.1725 49.7935 29.3309 49.7931C31.0845 49.7929 32.8381 49.7927 34.5918 49.793C34.5911 48.488 34.5911 47.1823 34.5918 45.8774Z" fill="#162B30"/>
</svg>
