<svg width="73" height="70" viewBox="0 0 73 70" fill="none" xmlns="http://www.w3.org/2000/svg">
<path fill-rule="evenodd" clip-rule="evenodd" d="M59.6183 0H12.533C10.3688 0.0717774 8.22158 0.683594 6.36631 1.804C4.25947 3.06318 2.53135 4.9458 1.46152 7.15518C0.671289 8.76983 0.248145 10.5547 0.187988 12.3491V57.655C0.251563 59.5171 0.706152 61.3683 1.55381 63.0294C2.6127 65.128 4.26904 66.9184 6.27608 68.1413C8.15391 69.2966 10.338 69.9282 12.5385 70H59.6217C62.4791 69.9262 65.3003 68.8639 67.4796 67.012C69.2843 65.4944 70.6549 63.4655 71.3795 61.2213C71.7794 60.0401 71.9325 58.798 72.0337 57.5613V12.4291C72.025 12.3407 72.0165 12.2522 72.008 12.1637C71.9313 11.3663 71.8544 10.5673 71.6611 9.7877C70.9694 6.79766 69.138 4.09541 66.6292 2.32969C64.5921 0.877735 62.1168 0.0669922 59.6183 0ZM54.7045 21.4595C54.7038 19.5239 54.7031 17.5884 54.7073 15.6529C54.6889 15.48 54.8331 15.3228 55.0108 15.3481C56.1091 15.3458 57.2075 15.3462 58.3059 15.3466C59.2354 15.3469 60.1648 15.3473 61.0942 15.346C61.2623 15.3228 61.4038 15.4902 61.3778 15.6522C61.3775 20.0102 61.3775 24.3682 61.3775 28.7262C61.3775 33.0963 61.3775 37.4665 61.3772 41.8366C61.3797 42.1919 61.3784 42.5473 61.3771 42.9027C61.3743 43.7099 61.3714 44.5173 61.4127 45.3236C61.4249 45.7068 61.454 46.0889 61.4831 46.471C61.5128 46.8607 61.5425 47.2503 61.5542 47.641C61.5604 47.8297 61.4517 48.0191 61.2746 48.0922C58.8301 49.1374 56.1962 49.6986 53.55 49.8921C51.8759 50.0063 50.1778 50.0015 48.529 49.6522C46.6361 49.2523 44.7651 48.5406 43.2489 47.3136C41.5646 45.9614 40.3026 44.0836 39.7243 41.9993C39.2759 40.4414 39.1467 38.8083 39.1809 37.193C39.252 34.6575 40.129 32.1481 41.6767 30.1356C43.0603 28.3076 44.9661 26.8885 47.1024 26.0607C48.9419 25.3442 50.925 25.0633 52.891 25.0407C53.2766 25.0277 53.6605 25.0567 54.0445 25.0856C54.2644 25.1022 54.4843 25.1188 54.7046 25.1275C54.7054 23.9048 54.705 22.6822 54.7045 21.4595ZM15.1122 25.396C13.7088 23.0215 12.3053 20.647 10.9047 18.2711C10.7741 18.0824 11.023 17.9218 11.1952 17.9512C13.4716 17.9478 15.7486 17.9471 18.025 17.9512C18.3053 17.9375 18.6006 18.0523 18.7257 18.3183C19.5241 20.0936 20.4313 21.8176 21.391 23.5102C21.7052 24.0854 22.0336 24.6523 22.3621 25.2193C22.7614 25.9084 23.1606 26.5975 23.5341 27.3014C23.8889 27.9563 24.2293 28.6193 24.5608 29.2872C24.5811 29.327 24.6004 29.3674 24.6197 29.4079C24.6788 29.5315 24.738 29.6554 24.824 29.763C25.9397 27.4668 27.1223 25.2034 28.3534 22.9674C29.0815 21.6454 29.7852 20.3101 30.4888 18.9751C30.5852 18.7922 30.6816 18.6092 30.7781 18.4263C30.7817 18.4176 30.7853 18.4089 30.789 18.4C30.8694 18.2053 30.9672 17.9686 31.217 17.9751C32.4085 17.9796 33.6002 17.979 34.7918 17.9784C35.7928 17.9779 36.7937 17.9774 37.7945 17.9799C37.9313 17.9772 38.0427 18.1057 38.0454 18.2383C36.9059 20.1163 35.7676 21.9951 34.6293 23.8739C32.7458 26.9827 30.8623 30.0914 28.9734 33.1967C30.8941 36.3612 32.8222 39.5214 34.7502 42.6815C35.9417 44.6344 37.1332 46.5873 38.323 48.5413C38.3503 48.5899 38.3818 48.6389 38.4137 48.6886C38.54 48.8852 38.6736 49.0931 38.5868 49.3316C37.3002 49.3262 36.0134 49.327 34.7266 49.3278C33.5569 49.3286 32.3872 49.3293 31.2177 49.3254C30.9285 49.3172 30.5833 49.2707 30.4158 49.0034C30.0525 48.3062 29.6943 47.6061 29.3361 46.906C28.5475 45.3645 27.7588 43.8229 26.9145 42.311C26.6451 41.8249 26.3744 41.3395 26.1038 40.854C25.6163 39.9794 25.1288 39.1048 24.6483 38.2266C24.6072 38.1558 24.5688 38.0834 24.5304 38.011C24.4501 37.8596 24.3698 37.7083 24.2648 37.5724C23.4742 39.158 22.6383 40.72 21.8024 42.2821C21.3137 43.1954 20.8249 44.1088 20.3451 45.027C19.6041 46.403 18.8542 47.775 18.0968 49.1422C17.997 49.3445 17.7495 49.3849 17.5465 49.3869C16.5606 49.3925 15.5747 49.391 14.5888 49.3895C13.286 49.3875 11.9832 49.3855 10.6805 49.3999C10.6436 49.2536 10.6326 49.0923 10.7249 48.9638C11.3632 47.9171 12.0014 46.8703 12.6397 45.8236C15.1006 41.7877 17.5614 37.7519 20.0252 33.7183C18.3904 30.9426 16.7513 28.1693 15.1122 25.396ZM54.7053 30.8137C52.9088 30.3926 50.9421 30.5929 49.3179 31.4911C48.3014 32.0428 47.4277 32.8604 46.8241 33.8475C46.2062 34.892 46.0079 36.128 45.9984 37.3256C45.9635 38.5561 46.1911 39.7995 46.6949 40.9247C47.1776 41.9877 47.9903 42.9147 49.0403 43.4445C50.2653 44.0576 51.666 44.2504 53.0236 44.1643C53.2078 44.1443 53.3942 44.1397 53.5806 44.1352C53.9623 44.1258 54.3438 44.1164 54.7053 43.9749C54.7039 39.5955 54.7046 35.2161 54.7053 30.8374V30.8137Z" fill="#162B30"/>
</svg>
