<svg width="30" height="30" viewBox="0 0 30 30" fill="none" xmlns="http://www.w3.org/2000/svg">
<path fill-rule="evenodd" clip-rule="evenodd" d="M5.07761 0C2.27332 0 0 2.27332 0 5.07761V24.9224C0 27.7267 2.27332 30 5.07761 30H24.9224C27.7267 30 30 27.7267 30 24.9224V5.07761C30 2.27332 27.7267 0 24.9224 0H5.07761ZM18.5181 4.46638C16.9867 3.96908 15.3487 3.82389 13.7498 3.99084C11.2318 4.23771 8.83672 5.40859 7.03222 7.17135C5.33074 8.85507 4.14477 11.0761 3.78422 13.4493C3.68609 14.0155 3.65412 14.5905 3.63636 15.1637V15.3879C3.65856 16.7573 3.89167 18.1297 4.39652 19.4063C4.89738 20.6944 5.65132 21.8804 6.57311 22.9083C7.86698 24.3762 9.56713 25.4738 11.4267 26.0764C11.6145 26.1123 11.8343 26.1105 11.987 25.9787C12.1318 25.8614 12.1962 25.6714 12.1899 25.4894C12.1846 24.7976 12.1793 24.1054 12.1753 23.4131C11.4258 23.5703 10.6474 23.5477 9.89881 23.3998C9.24166 23.2524 8.62625 22.8053 8.38248 22.1632C8.18268 21.6481 7.91316 21.1535 7.53485 20.7477C7.43006 20.6287 7.29623 20.5403 7.16283 20.4521C6.9667 20.3225 6.77148 20.1935 6.67079 19.9689C6.60818 19.8747 6.69521 19.7802 6.78712 19.7593C7.11881 19.6629 7.47624 19.7402 7.7835 19.8805C8.09432 20.0386 8.39359 20.2322 8.62314 20.4986C8.74784 20.633 8.84479 20.7876 8.94176 20.9421C9.02676 21.0776 9.11176 21.2132 9.21547 21.3351C9.48543 21.6664 9.84464 21.9323 10.2558 22.0571C10.5302 22.1437 10.8208 22.1252 11.1039 22.1071C11.1168 22.1062 11.1297 22.1054 11.1425 22.1046C11.5097 22.0771 11.868 21.9794 12.2037 21.8311C12.2141 21.7828 12.2238 21.7344 12.2335 21.686C12.2708 21.4995 12.3082 21.313 12.3822 21.1371C12.4937 20.8192 12.6944 20.5425 12.9297 20.305C12.1757 20.206 11.4111 20.0954 10.7074 19.7939C10.1142 19.5422 9.54093 19.2163 9.0867 18.7527C8.72971 18.3922 8.46063 17.9521 8.26615 17.485C7.85499 16.5259 7.72578 15.4683 7.76041 14.4319C7.79993 13.4067 8.20887 12.3979 8.91886 11.6537C8.90352 11.605 8.88732 11.5565 8.87113 11.5079C8.82874 11.3809 8.78632 11.2537 8.75901 11.1227C8.56187 10.2879 8.72349 9.41498 9.02276 8.62551C9.56136 8.51901 10.0821 8.73812 10.5727 8.94456C10.618 8.96362 10.663 8.98257 10.7078 9.00115C11.2251 9.20229 11.6989 9.49312 12.1615 9.79639C14.0113 9.28843 15.9952 9.28887 17.8454 9.79639C18.337 9.4798 18.8387 9.17121 19.3831 8.95275C19.3944 8.94794 19.4058 8.94311 19.4171 8.93827C19.9033 8.73157 20.4324 8.50665 20.9691 8.6264C20.9822 8.6637 20.9955 8.70095 21.0087 8.73819C21.0723 8.91686 21.1359 9.09547 21.1818 9.27955C21.398 10.0553 21.3847 10.8993 21.0877 11.6519C21.5823 12.1843 21.949 12.8384 22.1187 13.5466C22.2758 14.1709 22.2723 14.8218 22.2217 15.4594C22.1444 16.4141 21.8931 17.3727 21.3763 18.1866C20.8164 19.0462 19.8901 19.5852 18.9439 19.9245C18.3356 20.1296 17.6971 20.2224 17.0622 20.3045C17.3739 20.5861 17.5941 20.9613 17.7002 21.3666C17.8341 21.8263 17.832 22.306 17.8299 22.7812C17.8296 22.8545 17.8293 22.9277 17.8294 23.0006C17.8301 23.3381 17.8299 23.6755 17.8296 24.0131C17.8292 24.5194 17.8287 25.0258 17.8317 25.532C17.8285 25.7695 17.9773 26.0231 18.2197 26.0781C18.4524 26.1359 18.6846 26.055 18.8973 25.9658C20.2196 25.496 21.4504 24.77 22.5019 23.8407C24.075 22.4287 25.2943 20.6012 25.8968 18.5689C26.2094 17.5499 26.3422 16.4846 26.3701 15.4212V15.1624C26.3484 13.9 26.1441 12.6368 25.713 11.4481C24.9195 9.2498 23.4414 7.29745 21.517 5.96672C20.597 5.32511 19.586 4.81094 18.5181 4.46638Z" fill="#7FF2DA"/>
</svg>
