<svg width="30" height="30" viewBox="0 0 30 30" fill="none" xmlns="http://www.w3.org/2000/svg">
<path d="M12.1559 0.997075C14.6543 0.544146 17.2705 0.679497 19.6881 1.47051C21.6598 2.11915 23.4873 3.19141 25.0348 4.57188C26.3578 5.76133 27.4635 7.18985 28.2902 8.76426C29.4094 10.849 29.9713 13.2115 30 15.5729V15.9074C29.9637 17.159 29.8307 18.4147 29.499 19.6246C29.1727 20.868 28.6764 22.0674 28.0266 23.1766C26.3209 26.1361 23.615 28.5414 20.3971 29.7285C20.0385 29.851 19.6805 30.0613 19.2873 29.9828C18.9451 29.9313 18.7254 29.5803 18.7324 29.2504C18.7254 28.1389 18.7318 27.0273 18.7295 25.9158C18.7266 25.2315 18.7617 24.5354 18.5877 23.8668C18.4553 23.2908 18.1582 22.7523 17.7182 22.3551C18.5391 22.249 19.3635 22.1283 20.1521 21.8699C21.4184 21.424 22.6611 20.7092 23.41 19.5602C24.0926 18.4856 24.4236 17.2193 24.5262 15.9596C24.5912 15.1352 24.5971 14.2949 24.4014 13.4869C24.1898 12.5688 23.7299 11.7139 23.0988 11.016C22.9846 10.9299 23.0848 10.7963 23.1082 10.6902C23.5471 9.47032 23.3367 8.12208 22.8715 6.942C22.1619 6.7879 21.4611 7.08438 20.8201 7.35801C20.0871 7.64922 19.4109 8.06231 18.7494 8.48829C16.309 7.81797 13.691 7.81856 11.25 8.48829C10.6412 8.08926 10.0172 7.70606 9.33633 7.44063C8.63555 7.15001 7.88672 6.79083 7.10859 6.942C6.69375 8.0295 6.48457 9.24122 6.79512 10.3832C6.84434 10.5713 6.9123 10.7535 6.9709 10.9393C6.04688 11.9072 5.5084 13.2162 5.44453 14.5504C5.38242 16.0815 5.60391 17.6535 6.29355 19.0357C6.55723 19.5613 6.90469 20.0477 7.33711 20.4479C7.92246 20.9981 8.63672 21.3895 9.37324 21.6988C10.2908 22.0844 11.284 22.2262 12.2637 22.3557C11.7041 22.8807 11.4135 23.6207 11.3068 24.369C10.6313 24.6777 9.87832 24.7844 9.14062 24.7451C8.48965 24.6854 7.89961 24.3156 7.46836 23.8381C7.23691 23.5914 7.06641 23.2979 6.88594 23.0143C6.60762 22.5772 6.2209 22.2109 5.76855 21.9584C5.30859 21.6707 4.74141 21.4938 4.20059 21.6221C4.09102 21.649 3.93105 21.7316 3.98789 21.8693C4.14844 22.2772 4.55918 22.4805 4.89902 22.7149C5.55586 23.2738 5.96895 24.0613 6.28184 24.8529C6.60703 25.6639 7.38633 26.2275 8.21895 26.4291C9.22031 26.6354 10.2645 26.6676 11.2682 26.4572C11.2746 27.3502 11.2781 28.2432 11.2881 29.1367C11.2975 29.3688 11.2488 29.6178 11.0783 29.7877C10.8697 30.0186 10.5229 30.0315 10.2404 29.9611C9.20508 29.6154 8.20664 29.1619 7.2668 28.6059C4.58672 26.9986 2.46328 24.5131 1.20234 21.6607C0.408398 19.8373 0.0275391 17.851 0 15.8664V15.574C0.0234375 14.783 0.0714844 13.9897 0.210937 13.2092C0.636328 10.5232 1.87031 7.99317 3.63281 5.93184C5.8166 3.40001 8.86465 1.61348 12.1559 0.997075Z" fill="#162B30"/>
</svg>
