<svg width="30" height="30" viewBox="0 0 30 30" fill="none" xmlns="http://www.w3.org/2000/svg">
<path fill-rule="evenodd" clip-rule="evenodd" d="M11.4094 6.36082C10.5023 6.36111 9.59505 6.36113 8.6878 6.36107C8.46426 6.36106 8.24071 6.36104 8.01716 6.36102L7.72571 6.36099C6.36653 6.36087 5.00732 6.36074 3.64827 6.3613C3.44719 6.36138 3.24612 6.36148 3.04505 6.3616L2.9469 6.36165C2.87357 6.3617 2.81411 6.42107 2.81397 6.4944C2.81386 6.55634 2.81376 6.61829 2.81368 6.68024C2.81351 6.79913 2.81341 6.91801 2.81334 7.03691C2.81302 7.60791 2.8137 8.17898 2.81438 8.75009L2.81438 8.75046C2.81586 10.0005 2.81735 11.2508 2.80838 12.5011C2.80805 12.5463 2.78468 12.588 2.74721 12.6133C2.74249 12.6165 2.73777 12.6197 2.73306 12.6229C2.68878 12.6531 2.64514 12.6844 2.60147 12.7158C2.49255 12.7939 2.38352 12.8721 2.26424 12.9337C2.21732 12.9579 2.18555 13.005 2.18525 13.0578C2.16997 15.7365 2.17231 18.4152 2.17466 21.0938C2.17608 22.7156 2.17749 24.3374 2.175 25.9592C2.17489 26.0328 2.23451 26.0925 2.30809 26.0925C6.54247 26.0912 10.7769 26.093 15.0113 26.0948C19.246 26.0966 23.4807 26.0984 27.7157 26.0971C27.7892 26.0971 27.8488 26.0374 27.8487 25.9639C27.8469 24.3827 27.8481 22.8014 27.8493 21.2201V21.2186C27.8514 18.4909 27.8534 15.7631 27.84 13.0356C27.8398 12.9922 27.8184 12.9517 27.7829 12.9268C27.7091 12.875 27.6357 12.8225 27.5623 12.7701C27.4651 12.7005 27.3679 12.631 27.2695 12.5631C27.2393 12.5422 27.2089 12.5214 27.1784 12.5009C27.1414 12.4759 27.1189 12.4344 27.1188 12.3898C27.1173 11.1925 27.1176 9.99565 27.118 8.7987V8.79866C27.1181 8.21372 27.1183 7.62875 27.1182 7.04373C27.1182 6.87837 27.1182 6.71301 27.1181 6.54764L27.1181 6.48902C27.1181 6.41565 27.0586 6.35616 26.9853 6.35606L26.9494 6.35601C26.7523 6.35574 26.5553 6.35556 26.3583 6.35544C25.5098 6.35493 24.6613 6.35566 23.8128 6.35639L23.8114 6.35639C23.1911 6.35692 22.5707 6.35746 21.9504 6.35751C21.752 6.35752 21.5537 6.35749 21.3553 6.35739C20.4241 6.35693 19.4929 6.35504 18.5619 6.35008C18.5358 6.34994 18.5104 6.34216 18.4888 6.32768C17.8503 5.9006 17.2232 5.45425 16.5962 5.00791L16.5962 5.00788L16.5961 5.00786C16.0936 4.65012 15.591 4.2924 15.0826 3.9446C15.015 3.89651 14.9539 3.94458 14.896 3.99015C14.8759 4.00592 14.8563 4.02139 14.8368 4.03247C14.8303 4.03622 14.8237 4.04 14.8176 4.04442C14.2812 4.43105 13.7414 4.81309 13.2015 5.19516L13.2015 5.19517L13.2012 5.19539C12.7266 5.53133 12.2519 5.8673 11.7794 6.20644C11.764 6.21679 11.7486 6.22759 11.733 6.23847C11.636 6.30635 11.5346 6.37736 11.4094 6.36082ZM26.4458 6.94652C26.4224 6.92593 26.3917 6.91344 26.358 6.91342L26.3421 6.91342C25.7788 6.91316 25.2156 6.91337 24.6525 6.91357H24.6524C23.7513 6.91389 22.8503 6.91421 21.9494 6.91267C21.9154 6.91261 21.8826 6.92558 21.8579 6.94892C21.7927 7.01044 21.7274 7.07198 21.6622 7.13354C20.674 8.06654 19.6895 9.00365 18.7049 9.94074L18.7045 9.94114C17.4988 11.0887 16.2932 12.2362 15.081 13.3761C15.0645 13.3915 15.0424 13.3994 15.0199 13.3978C15.0014 13.3964 14.9839 13.3888 14.9703 13.376C13.1382 11.6517 11.3141 9.91827 9.48985 8.18469L9.48969 8.18454C9.12226 7.83537 8.75483 7.4862 8.38733 7.1371L8.31445 7.06788C8.29671 7.05325 8.27918 7.03664 8.26137 7.01975C8.19833 6.96001 8.13179 6.89693 8.0401 6.90725C8.03237 6.90812 8.02461 6.90892 8.01684 6.90892C7.2684 6.90847 6.51997 6.9087 5.77165 6.90893H5.77154C5.06356 6.90914 4.35568 6.90936 3.64799 6.909C3.627 6.90899 3.60714 6.91384 3.58947 6.9225C3.57885 6.9277 3.56902 6.93428 3.56022 6.942C3.53932 6.94199 3.51842 6.94198 3.49752 6.94196C3.49157 7.78667 3.49449 8.63164 3.49741 9.47658V9.47661C3.50209 10.8338 3.50677 12.1909 3.47468 13.5466C4.09368 13.8378 4.72041 14.1119 5.34732 14.3862L5.34804 14.3865C5.79871 14.5837 6.24948 14.7809 6.69753 14.9845C6.6965 14.9262 6.69554 14.8679 6.69462 14.8096C6.70616 14.7897 6.71275 14.7664 6.71236 14.7408C6.71089 14.6454 6.70957 14.55 6.70838 14.4546C6.70696 14.3405 6.70572 14.2264 6.70465 14.1124L6.70449 14.0951C6.69591 13.1657 6.69827 12.2363 6.70063 11.3068C6.70152 10.9561 6.70242 10.6054 6.70272 10.2547C6.70276 10.2121 6.70278 10.1694 6.7028 10.1267C6.70287 9.96319 6.7028 9.79969 6.70252 9.63619C6.70245 9.58947 6.70235 9.54275 6.70224 9.49603C6.70204 9.41642 6.76679 9.36291 6.83498 9.36216C9.5549 11.9333 12.2737 14.5056 14.9784 17.0928C17.7107 14.5003 20.4421 11.9069 23.1671 9.30794C23.1809 9.29849 23.1997 9.28581 23.2198 9.27229C23.2277 9.26695 23.2358 9.26148 23.2439 9.25603C23.2716 9.25698 23.298 9.27049 23.3148 9.29229C23.313 9.94138 23.3147 10.5906 23.3165 11.2398C23.3199 12.4819 23.3233 13.724 23.3014 14.9653C23.8225 14.725 24.3481 14.4949 24.8737 14.2649L24.874 14.2648C25.4133 14.0287 25.9525 13.7927 26.4868 13.5457C26.4865 13.5286 26.4862 13.5116 26.486 13.4946C26.4977 13.4742 26.5041 13.4506 26.5037 13.4261C26.501 13.2493 26.4987 13.0725 26.4967 12.8957C26.4949 12.7273 26.4933 12.559 26.4921 12.3906C26.4846 11.3876 26.4872 10.3844 26.4897 9.38121V9.37976C26.4916 8.63035 26.4935 7.88092 26.4912 7.13158C26.4911 7.10302 26.491 7.07446 26.491 7.0459C26.4909 7.02124 26.4841 6.99816 26.4723 6.9784C26.4722 6.96778 26.4722 6.95716 26.4722 6.94653C26.4634 6.94653 26.4546 6.94652 26.4458 6.94652Z" fill="#7FF2DA"/>
<path d="M14.4027 3.39057C14.4026 3.39067 14.4025 3.39074 14.4025 3.39074C14.4024 3.39079 14.4033 3.39015 14.4053 3.38868C14.404 3.38963 14.4031 3.39028 14.4027 3.39057Z" fill="#7FF2DA"/>
<path fill-rule="evenodd" clip-rule="evenodd" d="M0 5.07761C0 2.27332 2.27331 0 5.07761 0H24.9224C27.7267 0 30 2.27332 30 5.07761V24.9224C30 27.7267 27.7267 30 24.9224 30H5.07761C2.27331 30 0 27.7267 0 24.9224V5.07761ZM14.9501 3.15175C15.1611 3.13364 15.3612 3.19325 15.5241 3.30633C16.0658 3.67698 16.5699 4.03617 17.0673 4.39056L17.0674 4.3906C17.6256 4.7883 18.1753 5.17996 18.7602 5.57502C20.4431 5.58323 22.1235 5.58179 23.8066 5.58034H23.8068C24.8651 5.57943 25.9246 5.57852 26.9863 5.58C27.4878 5.58071 27.8939 5.98736 27.8941 6.48873C27.8944 7.26004 27.8942 8.03048 27.894 8.80061V8.801C27.8937 9.88537 27.8934 10.9691 27.8945 12.0537C27.9401 12.0861 27.9851 12.1182 28.0288 12.1495L28.029 12.1497C28.0997 12.2002 28.1672 12.2484 28.2284 12.2914C28.4682 12.4595 28.6146 12.7345 28.6161 13.0318C28.6295 15.7614 28.6274 18.494 28.6253 21.2239V21.2253C28.6241 22.8058 28.6229 24.3854 28.6247 25.963C28.6253 26.4654 28.2183 26.873 27.7159 26.8732C23.4807 26.8745 19.2457 26.8727 15.0112 26.8709H15.0097C10.7756 26.869 6.54193 26.8672 2.30833 26.8685C1.80552 26.8687 1.39818 26.4607 1.39895 25.958C1.40144 24.3404 1.40002 22.7202 1.3986 21.099C1.39626 18.4179 1.39392 15.7339 1.40921 13.0534C1.41132 12.6833 1.63114 12.3871 1.90828 12.2441C1.95708 12.2189 1.99298 12.196 2.03447 12.1669C2.04104 11.0292 2.03968 9.89457 2.03833 8.75698V8.75684C2.03743 8.00409 2.03653 7.25005 2.03792 6.49297C2.03884 5.99162 2.44541 5.5859 2.94644 5.5856C4.53916 5.58465 6.13302 5.58479 7.72652 5.58494H7.72666C8.92272 5.58505 10.1186 5.58516 11.3136 5.5848C11.3205 5.58004 11.3279 5.57495 11.3356 5.56973C11.8215 5.22102 12.292 4.88805 12.7602 4.55679L12.7603 4.55668C13.2916 4.1807 13.8199 3.80692 14.3639 3.41484C14.3837 3.40051 14.4028 3.38813 14.4182 3.37861C14.4344 3.3657 14.4887 3.32267 14.5511 3.28478C14.621 3.24235 14.7605 3.16802 14.9501 3.15175Z" fill="#7FF2DA"/>
</svg>
