<svg width="30" height="30" viewBox="0 0 30 30" fill="none" xmlns="http://www.w3.org/2000/svg">
<path fill-rule="evenodd" clip-rule="evenodd" d="M5.07761 0C2.27332 0 0 2.27332 0 5.07761V24.9224C0 27.7267 2.27332 30 5.07761 30H24.9224C27.7267 30 30 27.7267 30 24.9224V5.07761C30 2.27332 27.7267 0 24.9224 0H5.07761ZM7.96166 4.26636C7.50053 3.99592 6.95695 3.87149 6.42387 3.90897C5.61195 3.95904 4.84051 4.40577 4.38388 5.07767C4.03069 5.58677 3.86249 6.2188 3.91047 6.83613C3.95454 7.45736 4.22048 8.0594 4.64983 8.51063C5.04409 8.92948 5.57508 9.21851 6.14234 9.31625C6.7141 9.41789 7.31854 9.32915 7.83483 9.06261C8.38051 8.78437 8.82514 8.31485 9.07519 7.75598C9.36182 7.12396 9.3936 6.3822 9.16424 5.72739C8.95437 5.11785 8.51962 4.58927 7.96166 4.26636ZM21.9909 10.9608C20.8942 10.7569 19.7288 10.7947 18.6869 11.2192C17.6822 11.6273 16.8037 12.3564 16.2382 13.2835C16.238 13.067 16.2383 12.8506 16.2386 12.6341C16.2392 12.1867 16.2398 11.7394 16.2361 11.2921C15.4005 11.2935 14.5647 11.2933 13.7289 11.2931C13.102 11.2929 12.4751 11.2928 11.8482 11.2933C11.8479 16.2205 11.8479 21.1478 11.8482 26.0751C13.3117 26.0754 14.7751 26.0754 16.2385 26.0751C16.2387 24.3575 16.2387 22.64 16.2386 20.9226C16.2386 20.0639 16.2385 19.2053 16.2385 18.3466C16.2382 18.0171 16.2592 17.687 16.3159 17.362C16.4133 16.7992 16.622 16.2394 17.0064 15.8086C17.3371 15.4317 17.7976 15.182 18.2854 15.0773C18.7966 14.9706 19.3381 14.9643 19.8424 15.1109C20.3137 15.2467 20.7266 15.5627 20.9859 15.9786C21.352 16.5578 21.4731 17.2534 21.51 17.9274C21.5226 18.2519 21.5213 18.5767 21.5199 18.9015C21.5192 19.077 21.5184 19.2526 21.5199 19.428C21.52 20.378 21.52 21.328 21.5199 22.278C21.5199 23.5437 21.5198 24.8094 21.5202 26.0751C23.0388 26.0754 24.5571 26.0754 26.0757 26.0751C26.0756 24.9609 26.0757 23.8468 26.0758 22.7327C26.076 20.6913 26.0762 18.65 26.0751 16.6085C26.0682 15.9621 26.001 15.3145 25.8433 14.687C25.6167 13.7704 25.1765 12.8913 24.4956 12.2281C23.8177 11.5583 22.9216 11.1383 21.9909 10.9608ZM4.34311 11.2933C5.21492 11.2929 6.08673 11.293 6.95854 11.293C7.61253 11.2931 8.26651 11.2931 8.92049 11.293C8.92125 14.4286 8.92116 17.5641 8.92108 20.6997C8.92103 22.4914 8.92098 24.2831 8.92109 26.0748C7.39499 26.0757 5.8689 26.0754 4.34311 26.0751C4.34251 21.1478 4.34251 16.2205 4.34311 11.2933Z" fill="#7FF2DA"/>
</svg>
