<svg width="30" height="30" viewBox="0 0 30 30" fill="none" xmlns="http://www.w3.org/2000/svg">
<g clip-path="url(#clip0_49_104)">
<path d="M14.8069 0H15.1913C16.3582 0.0246094 17.5242 0.167285 18.6565 0.453516C20.7533 0.982031 22.7326 1.96875 24.416 3.32607C26.037 4.63184 27.3823 6.28008 28.3315 8.13311C29.1396 9.69609 29.6648 11.4038 29.8843 13.149C29.9534 13.7188 29.9854 14.2922 30 14.8655V15.1345C29.9757 16.5352 29.7797 17.9361 29.3751 19.2788C28.7036 21.5317 27.4954 23.6218 25.8773 25.3271C24.3082 26.9798 22.357 28.2671 20.2201 29.0584C18.5889 29.6733 16.8475 29.9771 15.1063 30H14.8945C14.3924 29.9889 13.8905 29.9616 13.3904 29.9127C11.8113 29.7384 10.258 29.318 8.81191 28.6594C6.13447 27.4553 3.82939 25.4396 2.28193 22.9447C1.02363 20.9361 0.248438 18.6243 0.0577148 16.2612C0.0228516 15.8777 0.0102539 15.4931 0 15.1081V14.891C0.01875 13.9058 0.106348 12.9187 0.315527 11.9546C0.810645 9.55723 1.9043 7.28525 3.47227 5.40527C4.32012 4.38896 5.30127 3.48457 6.38291 2.72227C7.95381 1.62627 9.73154 0.825293 11.5986 0.39375C11.8934 0.332812 12.1852 0.254883 12.4837 0.213867C12.8394 0.158203 13.1953 0.0993164 13.5545 0.0729492L13.5439 0.0421875C13.5984 0.0392578 13.6529 0.0360352 13.7077 0.0295898C13.6796 0.046875 13.6521 0.0644531 13.6269 0.0849609C13.7563 0.0292969 13.8993 0.0541992 14.0355 0.0369141C14.2916 0.00791016 14.55 0.0172852 14.8069 0ZM8.86172 6.43945C8.33232 6.52295 7.81992 6.80361 7.52754 7.26211C7.26182 7.66436 7.19062 8.17031 7.27236 8.63965C7.36113 9.12275 7.65498 9.56777 8.07598 9.82441C8.53242 10.1153 9.1002 10.1792 9.62754 10.1045C10.1317 10.0386 10.6187 9.78135 10.921 9.3668C11.4064 8.71553 11.3733 7.74756 10.8727 7.11416C10.5445 6.69375 10.0198 6.4582 9.49453 6.42158C9.28389 6.38877 9.07148 6.41631 8.86172 6.43945ZM19.5091 11.3678C18.9454 11.3982 18.3847 11.5503 17.896 11.8359C17.3938 12.1254 16.9881 12.5587 16.6688 13.038C16.6509 13.0632 16.6307 13.086 16.6081 13.1068C16.602 12.6062 16.6069 12.1055 16.6058 11.6048C15.4107 11.6027 14.2157 11.6062 13.0207 11.603C13.0219 11.8072 13.0266 12.0117 13.026 12.2162C13.0392 12.607 13.0125 12.999 13.0441 13.3887C13.0424 14.3062 13.0438 15.2238 13.0436 16.1411C13.038 16.4344 13.057 16.7285 13.0286 17.0209C13.0339 18.8121 13.0175 20.6036 13.023 22.3945C14.2172 22.3878 15.4113 22.398 16.6052 22.3893C16.6066 20.3074 16.6034 18.225 16.6069 16.1432C16.6063 15.5695 16.8879 15.0217 17.3127 14.6455C17.654 14.3391 18.116 14.1715 18.5745 14.1876C19.0204 14.175 19.4874 14.3259 19.7936 14.6607C20.1445 15.0264 20.2819 15.5388 20.3455 16.0286C20.3493 16.1845 20.3801 16.3386 20.3748 16.495C20.3766 18.4611 20.3701 20.4275 20.3777 22.3934C21.5692 22.3934 22.7604 22.389 23.9517 22.3957C23.9687 21.9621 23.954 21.5276 23.959 21.0938C23.959 19.7074 23.959 18.3211 23.959 16.9348C23.9528 16.4367 23.9792 15.9369 23.925 15.4409C23.8787 14.8852 23.7624 14.3329 23.562 13.8117C23.3259 13.2079 22.96 12.6454 22.4578 12.23C21.6504 11.5444 20.5485 11.2907 19.5091 11.3678ZM7.4502 11.6057C7.45225 14.7387 7.45049 17.8717 7.45107 21.0047C7.45518 21.4682 7.44287 21.9319 7.45752 22.3948C8.64844 22.3907 9.83994 22.3913 11.0312 22.3945C11.0429 22.147 11.0329 21.8988 11.0361 21.651C11.0367 18.3026 11.035 14.954 11.037 11.6057C9.84141 11.6033 8.6458 11.6033 7.4502 11.6057Z" fill="#162B30"/>
<path d="M8.86172 6.43922C9.07149 6.41607 9.28389 6.38853 9.49454 6.42134C10.0198 6.45797 10.5445 6.69351 10.8727 7.11392C11.3733 7.74732 11.4065 8.71529 10.921 9.36656C10.6187 9.78111 10.1317 10.0383 9.62754 10.1043C9.1002 10.179 8.53243 10.1151 8.07598 9.82418C7.65499 9.56754 7.36114 9.12252 7.27237 8.63941C7.19063 8.17007 7.26182 7.66412 7.52754 7.26187C7.81993 6.80338 8.33233 6.52271 8.86172 6.43922Z" fill="#95F9E3"/>
<path d="M19.5091 11.3673C20.5486 11.2903 21.6504 11.544 22.4579 12.2295C22.96 12.6449 23.3259 13.2074 23.5621 13.8113C23.7625 14.3324 23.8788 14.8847 23.925 15.4405C23.9792 15.9365 23.9529 16.4363 23.959 16.9343C23.959 18.3206 23.959 19.707 23.959 21.0933C23.9541 21.5272 23.9687 21.9616 23.9517 22.3952C22.7605 22.3885 21.5693 22.3929 20.3778 22.3929C20.3702 20.4271 20.3766 18.4607 20.3749 16.4946C20.3801 16.3381 20.3494 16.184 20.3456 16.0281C20.282 15.5383 20.1446 15.0259 19.7936 14.6603C19.4875 14.3254 19.0205 14.1745 18.5746 14.1871C18.1161 14.171 17.6541 14.3386 17.3127 14.645C16.8879 15.0212 16.6064 15.5691 16.607 16.1427C16.6035 18.2245 16.6067 20.307 16.6052 22.3888C15.4114 22.3976 14.2172 22.3873 13.0231 22.3941C13.0175 20.6032 13.0339 18.8116 13.0287 17.0204C13.0571 16.7281 13.038 16.4339 13.0436 16.1407C13.0439 15.2234 13.0424 14.3058 13.0442 13.3882C13.0125 12.9986 13.0392 12.6066 13.026 12.2157C13.0266 12.0113 13.0219 11.8068 13.0208 11.6026C14.2158 11.6058 15.4108 11.6023 16.6058 11.6043C16.607 12.105 16.602 12.6057 16.6082 13.1064C16.6307 13.0856 16.6509 13.0627 16.6688 13.0375C16.9881 12.5582 17.3939 12.1249 17.896 11.8355C18.3847 11.5498 18.9455 11.3978 19.5091 11.3673Z" fill="#95F9E3"/>
<path d="M7.45016 11.6053C8.64577 11.6029 9.84138 11.6029 11.037 11.6053C11.0349 14.9536 11.0367 18.3022 11.0361 21.6506C11.0329 21.8984 11.0428 22.1466 11.0311 22.3941C9.83991 22.3909 8.64841 22.3903 7.45749 22.3944C7.44284 21.9315 7.45515 21.4678 7.45104 21.0043C7.45046 17.8713 7.45222 14.7383 7.45016 11.6053Z" fill="#95F9E3"/>
</g>
<defs>
<clipPath id="clip0_49_104">
<rect width="30" height="30" fill="white"/>
</clipPath>
</defs>
</svg>
