<svg width="30" height="30" viewBox="0 0 30 30" fill="none" xmlns="http://www.w3.org/2000/svg">
<path fill-rule="evenodd" clip-rule="evenodd" d="M10.7113 6.87989C8.94005 7.83521 7.50163 9.39183 6.69204 11.2342C5.96336 12.874 5.74304 14.7319 6.05344 16.4985C6.27434 17.7946 6.80049 19.0259 7.52917 20.1172C7.35736 20.746 7.18537 21.3746 7.0134 22.0032L7.013 22.0046C6.87786 22.4986 6.74272 22.9925 6.6077 23.4864C7.09565 23.36 7.5832 23.2318 8.07076 23.1036L8.07565 23.1024C8.74168 22.9273 9.40775 22.7522 10.075 22.5815C11.2116 23.3096 12.5043 23.7968 13.844 23.9718C15.6095 24.207 17.4444 23.9161 19.0435 23.1283C21.21 22.0789 22.9233 20.1379 23.6933 17.8572C24.321 16.0223 24.3428 13.986 23.7524 12.139C23.248 10.5382 22.283 9.09003 21.0121 7.99472C19.5937 6.75883 17.7795 5.98654 15.9056 5.819C14.12 5.65089 12.2862 6.02039 10.7113 6.87989ZM10.9351 9.86805C11.1012 9.82943 11.2713 9.8351 11.441 9.84074H11.441C11.5133 9.84315 11.5856 9.84556 11.6574 9.84453C11.6798 9.84565 11.7027 9.8461 11.7257 9.84655L11.7258 9.84655C11.833 9.84867 11.9447 9.85087 12.0315 9.92026C12.1752 10.0285 12.2498 10.1992 12.3198 10.3596L12.3236 10.3684C12.3748 10.4926 12.4259 10.6168 12.477 10.7411L12.4772 10.7414C12.694 11.2685 12.9108 11.7955 13.1355 12.3192L13.1398 12.3297C13.1944 12.4618 13.2551 12.6087 13.2026 12.7512C13.081 13.1065 12.8284 13.3891 12.5821 13.6648L12.5816 13.6653C12.5607 13.6887 12.5399 13.712 12.5192 13.7352C12.5006 13.7572 12.4805 13.7789 12.4603 13.8007C12.3855 13.8813 12.3084 13.9643 12.2966 14.0772C12.284 14.1918 12.3432 14.2942 12.3988 14.3903C12.4036 14.3986 12.4084 14.4069 12.4131 14.4151C12.9014 15.2161 13.5067 15.9563 14.2509 16.5335C14.8562 17.0189 15.5499 17.3844 16.2711 17.6655C16.4157 17.7212 16.5803 17.6661 16.6767 17.5485C16.9917 17.1899 17.2981 16.8232 17.5793 16.4371C17.6556 16.3298 17.7721 16.2311 17.9132 16.2477C18.0697 16.2664 18.2144 16.3303 18.3578 16.3936L18.3579 16.3937C18.3822 16.4044 18.4065 16.4151 18.4307 16.4256C18.9532 16.6652 19.4692 16.9199 19.9849 17.1744L19.9849 17.1744C20.099 17.2307 20.213 17.287 20.327 17.3431C20.3403 17.3505 20.3541 17.358 20.3682 17.3657C20.4794 17.426 20.6068 17.495 20.6139 17.6351C20.6472 17.9226 20.5956 18.2135 20.529 18.4929C20.4722 18.7161 20.4068 18.945 20.2622 19.1292C20.0275 19.4356 19.7016 19.6571 19.3683 19.8441C18.6321 20.2664 17.7216 20.2756 16.9194 20.057C15.9641 19.7494 15.0042 19.4092 14.1585 18.8578C12.6231 17.8853 11.3878 16.5059 10.3757 15.0101C9.83976 14.1919 9.40772 13.2383 9.4737 12.2388C9.50641 11.5515 9.78354 10.8819 10.2477 10.3741C10.433 10.1561 10.6436 9.93231 10.9351 9.86805Z" fill="#7FF2DA"/>
<path fill-rule="evenodd" clip-rule="evenodd" d="M5.07761 0C2.27332 0 0 2.27332 0 5.07761V24.9224C0 27.7267 2.27332 30 5.07761 30H24.9224C27.7267 30 30 27.7267 30 24.9224V5.07761C30 2.27332 27.7267 0 24.9224 0H5.07761ZM11.4514 4.5309C13.4441 3.83722 15.6388 3.73623 17.6877 4.24115C19.5599 4.69901 21.3041 5.66695 22.684 7.013C23.9859 8.26381 24.9699 9.84224 25.5167 11.5624C26.3963 14.2912 26.1501 17.3631 24.8322 19.9107C23.8591 21.8161 22.3174 23.425 20.4555 24.479C17.9866 25.8945 14.9531 26.2794 12.2076 25.5307C11.3636 25.3115 10.5558 24.9724 9.78464 24.5685C8.53786 24.9005 7.28965 25.2273 6.04155 25.554C5.35057 25.7349 4.65962 25.9158 3.96896 26.0976C4.22773 25.1483 4.48765 24.1994 4.74756 23.2505L4.748 23.2489C5.00777 22.3006 5.26753 21.3523 5.52616 20.4035C4.51576 18.6518 4.00166 16.6172 4.06707 14.5959C4.12502 12.279 4.95182 9.99256 6.38164 8.17029C7.67605 6.50408 9.45759 5.22171 11.4514 4.5309Z" fill="#7FF2DA"/>
</svg>
